<?xml version="1.0" encoding="utf-8"?>
<!-- Generator: Adobe Illustrator 16.0.0, SVG Export Plug-In . SVG Version: 6.00 Build 0)  -->
<!DOCTYPE svg PUBLIC "-//W3C//DTD SVG 1.1//EN" "http://www.w3.org/Graphics/SVG/1.1/DTD/svg11.dtd">
<svg version="1.1" id="Layer_1" xmlns="http://www.w3.org/2000/svg" xmlns:xlink="http://www.w3.org/1999/xlink" x="0px" y="0px"
	 width="1024px" height="1024px" viewBox="0 0 1024 1024" enable-background="new 0 0 1024 1024" xml:space="preserve">
<path fill="#002429" d="M1024,768.001C1024,909.385,909.79,1024,768.905,1024h-510.19C117.83,1024,3.62,909.385,3.62,768.001V256
	C3.62,114.615,117.83,0,258.715,0h510.19C909.79,0,1024,114.615,1024,256V768.001z"/>
<path fill="#524925" d="M104.85,525.435c18.458-0.044,36.916,0.021,55.373,0.193c7.424,1.479,16.55,0.479,24.115,0.356
	c7.562,8.366,13.98,18.236,20.412,27.506c16.197,23.301,31.254,47.315,45.171,72.047c4.281,7.584,9.424,15.504,12.583,23.619
	c-11.523-0.347-29.274-1.071-40.306,0.125c-4.661,0.502-9.792,0.103-14.501,0.088l-30.663-0.27c-7.887-0.908-16.76-0.14-24.73-0.133
	c-16.229-0.07-32.457,0.001-48.684,0.221c15.982-20.111,32.765-41.428,47.796-62.148
	C136.922,565.796,120.242,546.026,104.85,525.435z"/>
<path fill="#524925" d="M838.545,525.085c27.285-0.112,54.57-0.062,81.854,0.153c-10.828,13.145-21.471,26.438-31.927,39.881
	c-5.567,7.173-11.638,14.291-16.488,21.962c15.639,20.88,31.926,41.244,47.363,62.291c-7.986,0.091-71.22-0.217-73.444,0.646
	c-5.103-0.835-10.749-0.428-15.912-0.442c-9.354-0.053-18.704-0.043-28.059,0.028c-3.096-0.022-6.19-0.028-9.286-0.018
	c-13.009-1.724-29.413,0.985-43.097-0.474c4.492-6.68,8.267-13.807,12.85-20.464c15.65-22.741,32.431-44.747,48.501-67.2
	C817.19,552.659,831.19,530.767,838.545,525.085z"/>
<path fill="#FFFFFF" d="M511.826,45.384c7.236,4.43,13.703,11.947,20.064,17.621c9.026,8.05,18.981,16.018,28.872,22.982
	c60.932,42.897,125.504,63.865,198.125,76.683c2.87,13.533,8.585,27.296,18.364,37.341c17.803,18.288,42.086,26.373,67.234,26.665
	l-0.202,236.369c-13.728-0.104-27.452-0.104-41.178,0.003l-0.322-202.686c-2.775-0.863-5.541-1.756-8.296-2.68
	c-31.168-10.61-53.438-29.441-67.932-58.945c-13.086-1.998-25.826-5.4-38.534-9.032c-5.755-1.649-11.479-3.395-17.173-5.237
	c-5.692-1.843-11.354-3.782-16.982-5.817c-5.628-2.035-11.22-4.164-16.776-6.389c-5.556-2.225-11.073-4.542-16.551-6.954
	c-5.478-2.412-10.912-4.916-16.305-7.512c-5.394-2.596-10.74-5.283-16.041-8.06c-5.303-2.777-10.556-5.644-15.759-8.599
	c-5.204-2.956-10.356-5.999-15.459-9.129c-10.597-6.49-20.928-13.381-30.99-20.671c-3.024-2.213-10.146-8.474-13.202-9.265
	c-1.173-0.304-2.069,0.592-3.021,1.169c-3.898,2.875-7.835,5.699-11.807,8.473c-3.972,2.773-7.979,5.496-12.021,8.166
	c-4.043,2.671-8.117,5.289-12.228,7.855c-4.108,2.566-8.25,5.079-12.424,7.538c-4.174,2.46-8.379,4.866-12.615,7.217
	c-4.235,2.351-8.5,4.646-12.795,6.889s-8.617,4.428-12.968,6.559c-4.353,2.131-8.729,4.205-13.133,6.223
	c-4.404,2.018-8.835,3.979-13.288,5.884c-4.455,1.904-8.935,3.751-13.437,5.54c-4.503,1.789-9.025,3.52-13.573,5.193
	c-4.546,1.673-9.112,3.287-13.7,4.842c-4.59,1.555-9.196,3.052-13.822,4.489c-4.627,1.437-9.271,2.814-13.934,4.132
	c-4.661,1.317-9.341,2.574-14.033,3.771c-4.695,1.197-9.404,2.334-14.127,3.411c-11.565,22.5-31.24,40.657-54.014,51.497
	c-7.824,3.725-16.12,6.476-24.268,9.402L221.7,465.89c-14.208,0.242-28.509-0.192-42.728-0.187l-0.461-238.241
	c18.389-2.766,31.109-3.842,47.723-13.384c20.172-11.586,29.592-28.069,35.468-49.981c17.092-3.451,34.126-6.359,51.021-10.787
	c6.886-1.839,13.727-3.825,20.523-5.958c6.798-2.133,13.547-4.412,20.247-6.836c6.7-2.424,13.345-4.992,19.934-7.702
	s13.116-5.562,19.583-8.554c6.466-2.992,12.865-6.122,19.197-9.389c6.331-3.268,12.589-6.671,18.774-10.208
	c6.185-3.538,12.29-7.207,18.315-11.007c6.027-3.801,11.969-7.729,17.826-11.786c9.081-6.44,17.806-13.333,26.172-20.677
	c5.783-5.106,11.565-11.252,18.012-15.48C511.48,45.601,511.654,45.494,511.826,45.384z"/>
<path fill="#FFFFFF" d="M222.198,649.281c11.032-1.196,28.783-0.472,40.306-0.125c9.566,17.865,17.581,36.416,27.804,53.971
	c1.177,2.049,2.37,4.088,3.581,6.116c1.21,2.028,2.437,4.047,3.68,6.056c1.244,2.009,2.503,4.007,3.779,5.995
	c1.276,1.988,2.568,3.967,3.877,5.933c1.308,1.969,2.632,3.925,3.973,5.869c1.34,1.945,2.694,3.881,4.066,5.805
	c1.372,1.922,2.761,3.834,4.163,5.733c1.403,1.901,2.822,3.79,4.256,5.667c1.436,1.878,2.885,3.743,4.35,5.597
	s2.943,3.694,4.438,5.524c1.495,1.829,3.005,3.646,4.529,5.451c1.523,1.805,3.063,3.597,4.617,5.376
	c1.554,1.779,3.122,3.546,4.705,5.3c1.582,1.754,3.179,3.495,4.79,5.224c1.61,1.728,3.235,3.441,4.876,5.144
	c1.639,1.701,3.292,3.389,4.959,5.063c1.666,1.674,3.347,3.334,5.041,4.979c1.692,1.646,3.4,3.279,5.122,4.898
	c1.721,1.617,3.454,3.223,5.2,4.813s3.507,3.166,5.278,4.729c1.772,1.561,3.559,3.107,5.356,4.641
	c1.797,1.533,3.607,3.05,5.431,4.553s3.657,2.99,5.505,4.463c1.848,1.474,3.706,2.932,5.577,4.373
	c1.871,1.442,3.754,2.869,5.647,4.28c1.895,1.412,3.8,2.809,5.718,4.189c1.917,1.38,3.846,2.744,5.785,4.093
	c1.938,1.349,3.89,2.683,5.851,3.999s3.933,2.618,5.915,3.902c1.981,1.284,3.976,2.554,5.979,3.806s4.018,2.487,6.039,3.707
	c2.023,1.219,4.058,2.422,6.102,3.606c13.588,7.954,27.048,15.2,41.273,21.948c6.765,3.207,13.823,6.683,21.012,8.799
	c0.447,0.132,0.904,0.235,1.359,0.348c15.23-4.592,35.152-15.276,49.21-22.979c42.532-23.301,82.154-52.248,115.205-87.907
	c6.212-6.703,11.931-13.934,17.75-20.979c15.946-19.301,30.441-39.74,42.31-61.818c8.684-16.156,16.15-32.234,22.322-49.521
	c11.032-0.019,22.758,0.806,33.709-0.318c3.097-0.012,6.191-0.006,9.287,0.019c9.354-0.072,18.705-0.082,28.059-0.029
	c5.163,0.016,10.811-0.393,15.912,0.443c-9.356,23.971-17.736,48.004-29.271,71.075c-7.017,14.037-15.25,27.58-23.806,40.724
	c-24.79,38.074-53.709,71.191-87.066,101.948c-12.832,11.832-25.655,23.117-39.618,33.639
	c-44.136,33.255-101.49,63.911-153.827,81.515c-7.954-1.833-15.94-5.515-23.479-8.609c-20.74-8.334-40.938-17.822-60.593-28.466
	c-2.81-1.498-5.604-3.021-8.383-4.568c-2.781-1.55-5.55-3.122-8.303-4.721c-2.752-1.598-5.489-3.22-8.215-4.865
	c-2.724-1.646-5.433-3.316-8.128-5.013c-2.693-1.692-5.373-3.412-8.037-5.153c-2.663-1.742-5.311-3.509-7.941-5.298
	c-2.634-1.789-5.249-3.603-7.851-5.438c-2.6-1.836-5.183-3.695-7.75-5.577c-2.566-1.882-5.117-3.787-7.648-5.714
	c-2.533-1.928-5.05-3.877-7.547-5.849c-2.499-1.974-4.979-3.968-7.442-5.982s-4.907-4.054-7.334-6.114
	c-2.427-2.06-4.835-4.141-7.224-6.243c-2.391-2.103-4.762-4.226-7.112-6.37c-2.353-2.146-4.685-4.312-6.997-6.496
	c-2.313-2.188-4.607-4.395-6.881-6.62c-2.274-2.229-4.528-4.475-6.761-6.742c-2.234-2.267-4.448-4.554-6.641-6.86
	c-2.193-2.306-4.366-4.633-6.518-6.978c-2.151-2.346-4.282-4.71-6.392-7.093c-2.109-2.384-4.198-4.785-6.265-7.205
	c-2.067-2.421-4.112-4.859-6.136-7.316c-2.023-2.457-4.024-4.932-6.004-7.424s-3.937-5.002-5.872-7.529
	c-1.935-2.526-3.847-5.07-5.737-7.633c-1.889-2.562-3.756-5.14-5.6-7.733c-1.843-2.596-3.664-5.205-5.461-7.832
	c-1.797-2.626-3.571-5.27-5.321-7.929c-1.75-2.657-3.477-5.333-5.179-8.021c-1.703-2.689-3.381-5.394-5.036-8.112
	c-1.654-2.719-3.285-5.452-4.89-8.201c-1.606-2.748-3.188-5.51-4.744-8.286c-14.438-25.834-27.172-53.501-35.86-81.822l30.663,0.269
	C212.406,649.384,217.537,649.783,222.198,649.281z"/>
<path fill="#002429" d="M222.198,649.281c11.032-1.196,28.783-0.472,40.306-0.125c9.566,17.865,17.581,36.416,27.804,53.971
	c1.177,2.049,2.37,4.088,3.581,6.116c1.21,2.028,2.437,4.047,3.68,6.056c1.244,2.009,2.503,4.007,3.779,5.995
	c1.276,1.988,2.568,3.967,3.877,5.933c1.308,1.969,2.632,3.925,3.973,5.869c1.34,1.945,2.694,3.881,4.066,5.805
	c1.372,1.922,2.761,3.834,4.163,5.733c1.403,1.901,2.822,3.79,4.256,5.667c1.436,1.878,2.885,3.743,4.35,5.597
	s2.943,3.694,4.438,5.524c1.495,1.829,3.005,3.646,4.529,5.451c1.523,1.805,3.063,3.597,4.617,5.376
	c1.554,1.779,3.122,3.546,4.705,5.3c1.582,1.754,3.179,3.495,4.79,5.224c1.61,1.728,3.235,3.441,4.876,5.144
	c1.639,1.701,3.292,3.389,4.959,5.063c1.666,1.674,3.347,3.334,5.041,4.979c1.692,1.646,3.4,3.279,5.122,4.898
	c1.721,1.617,3.454,3.223,5.2,4.813s3.507,3.166,5.278,4.729c1.772,1.561,3.559,3.107,5.356,4.641
	c1.797,1.533,3.607,3.05,5.431,4.553s3.657,2.99,5.505,4.463c1.848,1.474,3.706,2.932,5.577,4.373
	c1.871,1.442,3.754,2.869,5.647,4.28c1.895,1.412,3.8,2.809,5.718,4.189c1.917,1.38,3.846,2.744,5.785,4.093
	c1.938,1.349,3.89,2.683,5.851,3.999s3.933,2.618,5.915,3.902c1.981,1.284,3.976,2.554,5.979,3.806s4.018,2.487,6.039,3.707
	c2.023,1.219,4.058,2.422,6.102,3.606c13.588,7.954,27.048,15.2,41.273,21.948c6.765,3.207,13.823,6.683,21.012,8.799
	c0.447,0.132,0.904,0.235,1.359,0.348c15.23-4.592,35.152-15.276,49.21-22.979c42.532-23.301,82.154-52.248,115.205-87.907
	c6.212-6.703,11.931-13.934,17.75-20.979c15.946-19.301,30.441-39.74,42.31-61.818c8.684-16.156,16.15-32.234,22.322-49.521
	c11.032-0.019,22.758,0.806,33.709-0.318c3.097-0.012,6.191-0.006,9.287,0.019l-2.667,6.432
	c-27.296,65.65-60.461,120.618-112.924,169.357c-7.747,7.196-15.963,13.849-24.094,20.598
	c-29.391,24.393-60.415,46.706-94.543,64.107c-18.007,9.184-36.977,16.857-55.653,24.563c-12.503-4.4-24.593-9.978-36.634-15.492
	c-3.604-1.629-7.188-3.303-10.753-5.021c-3.565-1.719-7.106-3.479-10.627-5.283c-3.521-1.804-7.02-3.651-10.494-5.542
	c-3.475-1.892-6.927-3.823-10.354-5.798c-3.429-1.977-6.831-3.993-10.21-6.053c-3.379-2.058-6.729-4.156-10.058-6.299
	c-3.326-2.141-6.627-4.321-9.898-6.544c-3.273-2.222-6.521-4.482-9.737-6.785c-3.218-2.301-6.406-4.642-9.567-7.021
	c-3.16-2.38-6.29-4.799-9.392-7.255c-3.102-2.457-6.171-4.951-9.21-7.483c-3.04-2.531-6.049-5.101-9.025-7.707
	c-2.977-2.604-5.921-5.247-8.833-7.926c-2.911-2.678-5.789-5.392-8.635-8.14c-2.846-2.749-5.656-5.532-8.433-8.352
	c-2.777-2.816-5.521-5.669-8.228-8.554c-2.706-2.885-5.378-5.803-8.013-8.754c-2.636-2.95-5.234-5.934-7.796-8.947
	c-2.563-3.015-5.087-6.06-7.574-9.136c-2.487-3.077-4.937-6.185-7.348-9.319c-2.411-3.137-4.783-6.303-7.116-9.497
	c-2.334-3.194-4.628-6.418-6.882-9.669s-4.468-6.529-6.642-9.835c-2.174-3.306-4.307-6.637-6.399-9.994
	c-2.092-3.356-4.142-6.741-6.151-10.147c-2.009-3.408-3.976-6.842-5.901-10.297c-1.925-3.456-3.807-6.937-5.646-10.438
	s-3.635-7.027-5.388-10.573c-1.752-3.546-3.461-7.114-5.127-10.703c-1.665-3.588-3.286-7.196-4.863-10.824
	c-1.577-3.63-3.109-7.275-4.596-10.941S223.595,652.982,222.198,649.281z"/>
<path fill="#5F3C57" d="M511.783,151.545c32.123,22.321,72.438,40.676,108.531,55.829c26.392,11.08,53.531,21.792,81.109,29.548
	c16.523,24.44,35.567,37.248,61.315,50.592l0.292,191.362c36.268-0.055,72.981-0.545,109.215,0.552
	c-12.044,14.477-22.886,30.252-33.702,45.657c-7.354,5.682-21.354,27.574-27.646,36.363c-16.069,22.453-32.85,44.459-48.5,67.2
	c-4.584,6.657-8.356,13.784-12.85,20.464c13.684,1.459,30.088-1.25,43.096,0.474c-10.951,1.124-22.677,0.301-33.709,0.318
	c-6.172,17.285-13.64,33.362-22.322,49.521c-11.867,22.078-26.362,42.519-42.31,61.818c-5.819,7.045-11.538,14.274-17.75,20.979
	c-33.051,35.659-72.673,64.606-115.205,87.907c-14.058,7.701-33.979,18.387-49.21,22.979c-0.455-0.111-0.912-0.216-1.359-0.348
	c-7.188-2.117-14.247-5.592-21.012-8.799c-14.227-6.748-27.687-13.994-41.273-21.948c-2.044-1.186-4.077-2.389-6.102-3.606
	c-2.021-1.221-4.035-2.455-6.039-3.707s-3.996-2.521-5.979-3.807c-1.982-1.283-3.954-2.585-5.915-3.901s-3.912-2.65-5.851-3.999
	c-1.939-1.35-3.868-2.713-5.785-4.093c-1.918-1.382-3.823-2.777-5.718-4.188c-1.895-1.412-3.776-2.839-5.647-4.281
	c-1.871-1.441-3.729-2.899-5.577-4.373c-1.848-1.473-3.682-2.96-5.505-4.464c-1.822-1.502-3.633-3.02-5.431-4.552
	c-1.799-1.532-3.584-3.08-5.356-4.641c-1.771-1.563-3.532-3.14-5.278-4.729c-1.747-1.591-3.479-3.195-5.2-4.813
	c-1.722-1.619-3.43-3.252-5.122-4.898c-1.694-1.646-3.375-3.307-5.041-4.979c-1.667-1.676-3.32-3.362-4.959-5.063
	c-1.641-1.701-3.266-3.416-4.876-5.144c-1.611-1.729-3.208-3.47-4.79-5.224c-1.583-1.754-3.151-3.521-4.705-5.3
	c-1.555-1.779-3.093-3.571-4.617-5.376c-1.524-1.806-3.034-3.623-4.529-5.452c-1.494-1.829-2.974-3.671-4.438-5.523
	c-1.465-1.854-2.914-3.719-4.35-5.597c-1.434-1.877-2.853-3.766-4.256-5.667c-1.403-1.899-2.791-3.813-4.163-5.733
	c-1.372-1.925-2.728-3.858-4.066-5.805c-1.342-1.944-2.665-3.9-3.973-5.868c-1.309-1.967-2.601-3.944-3.877-5.934
	c-1.276-1.988-2.536-3.986-3.779-5.995c-1.243-2.009-2.47-4.026-3.68-6.056c-1.211-2.028-2.404-4.067-3.581-6.116
	c-10.223-17.555-18.238-36.104-27.804-53.971c-3.159-8.115-8.302-16.035-12.583-23.619c-13.917-24.73-28.974-48.746-45.171-72.047
	c-6.432-9.27-12.85-19.14-20.412-27.506c-7.565,0.12-16.691,1.12-24.115-0.356c7.98-0.207,16.001-0.056,23.986-0.074
	c-10.769-15.354-23.556-29.083-34.135-44.516l111.439-0.09l-0.06-191.872c8.098-4.073,16.274-8.211,23.729-13.393
	c14.43-10.029,30.187-26.187,38.651-41.631C389.81,216.194,454.892,189.829,511.783,151.545z"/>
<path fill="#F8F9FA" d="M511.733,183.398c3.348,1.357,6.582,3.751,9.699,5.602c7.684,4.561,15.501,9.379,23.489,13.365
	c30.478,15.132,61.622,28.729,93.438,40.793c15.941,6.066,31.889,12.301,48.518,16.234l0.136,24.592
	c16.258,7.723,33.689,12.604,50.066,20.068c1.105,64.379,0.405,128.918,0.344,193.313l-0.062,60.886
	c0.021,12.293,0.786,24.882-0.568,37.109c-3.103,28.017-10.335,57.309-21.724,83.136c-24.482,55.518-67,102.357-115.376,138.164
	c-9.394,6.952-18.79,13.768-28.817,19.789c-18.805,11.292-38.659,20.422-59.077,28.37c-3.238-1.3-6.458-2.64-9.661-4.021
	s-6.388-2.805-9.555-4.268c-3.167-1.464-6.313-2.969-9.442-4.513c-3.128-1.544-6.234-3.129-9.321-4.753
	c-3.088-1.624-6.153-3.288-9.197-4.991c-3.045-1.702-6.066-3.444-9.066-5.227c-3-1.78-5.976-3.6-8.929-5.457
	c-2.952-1.856-5.881-3.752-8.785-5.685c-2.903-1.935-5.783-3.903-8.637-5.91c-2.854-2.007-5.681-4.05-8.481-6.129
	c-2.801-2.08-5.573-4.195-8.319-6.347c-2.747-2.15-5.465-4.337-8.155-6.558s-5.352-4.476-7.984-6.765
	c-2.632-2.289-5.233-4.612-7.807-6.969c-2.572-2.355-5.114-4.744-7.625-7.167c-2.512-2.422-4.991-4.875-7.439-7.359
	c-8.46-8.444-16.016-17.583-23.417-26.958c-35.976-45.579-58.041-97.18-62.928-155.391c-1.167-13.897-0.795-28.064-0.804-42.009
	l-0.021-63.893l-0.13-177.117c4.808-3.444,10.455-6.034,15.686-8.788c10.815-5.696,21.528-11.185,32.792-15.957
	c-0.096-8.03,0.001-16.071,0.009-24.103C391.92,241.688,461.09,215.199,511.733,183.398z"/>
<path fill="#002429" d="M503.265,317.682c1.857-0.316,3.887-0.268,5.777-0.339c0.689-0.032,1.379-0.056,2.069-0.071
	c0.688-0.015,1.38-0.022,2.068-0.02c0.69,0.002,1.38,0.013,2.07,0.033c0.69,0.019,1.38,0.047,2.069,0.084
	c0.688,0.037,1.377,0.082,2.063,0.136c0.688,0.055,1.376,0.118,2.063,0.189c0.687,0.071,1.372,0.151,2.056,0.24
	c0.686,0.088,1.368,0.186,2.05,0.291c0.684,0.106,1.363,0.22,2.042,0.343c0.68,0.124,1.356,0.255,2.032,0.394
	c0.676,0.14,1.35,0.289,2.022,0.446c0.672,0.156,1.342,0.321,2.01,0.495c0.668,0.174,1.333,0.356,1.997,0.546
	c0.663,0.19,1.323,0.389,1.98,0.596c0.659,0.208,1.314,0.423,1.968,0.646c0.653,0.224,1.304,0.455,1.95,0.695
	c0.647,0.24,1.291,0.488,1.934,0.744c0.641,0.256,1.276,0.52,1.912,0.792c0.635,0.272,1.266,0.552,1.893,0.839
	c0.627,0.288,1.251,0.584,1.87,0.887c0.62,0.304,1.236,0.615,1.848,0.934c0.612,0.319,1.222,0.646,1.824,0.98
	c0.604,0.334,1.203,0.676,1.798,1.025c0.596,0.35,1.188,0.706,1.772,1.07c0.585,0.364,1.168,0.736,1.744,1.115
	c0.577,0.379,1.148,0.765,1.717,1.158c0.566,0.393,1.13,0.792,1.687,1.2c0.559,0.407,1.109,0.822,1.656,1.243
	s1.088,0.849,1.624,1.284c0.536,0.435,1.066,0.876,1.591,1.324c0.525,0.448,1.045,0.903,1.56,1.364
	c0.513,0.46,1.021,0.928,1.521,1.402c15.969,14.933,25.268,34.6,25.926,56.523c0.707,23.522-8.664,47.442-24.665,64.612
	c-6.801-1.83-13.473-4.561-20.188-6.736c0.503-11.023,0.379-22.199,0.422-33.237c0.026-6.463,0.106-13.49-4.952-18.317
	c-6.562-6.26-17.125-4.877-25.443-4.745c-8.954-0.105-26.688-1.517-34.777,0.771c-0.537,0.153-1.063,0.342-1.576,0.561
	s-1.013,0.469-1.496,0.749c-0.482,0.28-0.947,0.589-1.393,0.926c-0.445,0.339-0.869,0.701-1.271,1.092
	c-2.39,2.308-3.907,5.414-4.619,8.635c-1.815,8.226-0.577,34.749-0.55,44.686c-7.147,1.117-13.729,3.235-20.573,5.504
	c-14.262-15.563-22.872-29.396-25.591-50.774c-0.084-0.67-0.161-1.34-0.229-2.011c-0.068-0.673-0.128-1.345-0.181-2.018
	c-0.051-0.673-0.095-1.346-0.13-2.02c-0.035-0.675-0.063-1.35-0.081-2.022c-0.019-0.675-0.028-1.35-0.03-2.022
	c-0.002-0.676,0.004-1.351,0.018-2.024s0.036-1.349,0.067-2.023c0.028-0.674,0.067-1.347,0.114-2.02s0.104-1.346,0.165-2.018
	c0.063-0.671,0.137-1.342,0.216-2.012c0.079-0.67,0.168-1.339,0.264-2.007s0.2-1.334,0.313-2c0.112-0.665,0.232-1.329,0.361-1.991
	c0.128-0.663,0.265-1.324,0.409-1.982c0.145-0.659,0.297-1.316,0.458-1.972c0.16-0.655,0.329-1.309,0.505-1.96
	c0.177-0.651,0.361-1.3,0.553-1.947c0.192-0.646,0.395-1.291,0.603-1.933c0.208-0.641,0.423-1.28,0.646-1.917
	c0.226-0.637,0.455-1.271,0.694-1.902c0.239-0.63,0.485-1.258,0.74-1.883c0.254-0.625,0.517-1.248,0.784-1.866
	c0.271-0.618,0.548-1.233,0.831-1.845c0.284-0.612,0.576-1.221,0.875-1.825c0.301-0.604,0.606-1.206,0.92-1.803
	c0.314-0.597,0.637-1.19,0.966-1.78c0.326-0.589,0.663-1.175,1.006-1.756s0.691-1.158,1.049-1.73
	c0.356-0.573,0.721-1.142,1.091-1.705c0.371-0.564,0.748-1.124,1.133-1.678c0.386-0.554,0.775-1.104,1.172-1.65
	c0.398-0.544,0.804-1.084,1.215-1.62C459.571,330.763,480.42,320.466,503.265,317.682z"/>
<path fill="#524925" d="M444.114,760.563c-38.083-18.977-67.002-50.747-80.581-91.34c-13.155-39.318-8.462-81.76,9.999-118.484
	c19.124-38.044,51.748-64.872,92.017-78.062c1.898-0.61,3.809-1.186,5.729-1.723c1.92-0.537,3.851-1.036,5.791-1.499
	c1.938-0.462,3.888-0.886,5.845-1.272c1.957-0.386,3.92-0.732,5.89-1.044c1.972-0.31,3.945-0.581,5.927-0.813
	c1.98-0.233,3.966-0.428,5.952-0.583c1.988-0.156,3.979-0.273,5.973-0.354c1.992-0.078,3.985-0.117,5.979-0.118
	s3.988,0.036,5.981,0.112c1.992,0.077,3.981,0.192,5.971,0.347c1.988,0.153,3.974,0.347,5.954,0.576
	c1.98,0.231,3.956,0.501,5.927,0.811c1.972,0.308,3.935,0.653,5.893,1.038c1.956,0.385,3.904,0.807,5.846,1.267
	c1.939,0.46,3.87,0.958,5.792,1.493c1.921,0.535,3.831,1.107,5.729,1.717c8.685,2.859,17.095,6.779,25.235,10.916
	c1.108,0.566,2.21,1.146,3.304,1.739c1.096,0.593,2.182,1.2,3.261,1.82s2.148,1.254,3.213,1.899c1.063,0.646,2.118,1.308,3.166,1.98
	c1.046,0.673,2.085,1.358,3.114,2.058c1.028,0.699,2.051,1.41,3.063,2.135c1.013,0.726,2.016,1.461,3.009,2.21
	c0.994,0.75,1.979,1.512,2.953,2.284c0.977,0.774,1.94,1.561,2.896,2.357c0.956,0.798,1.899,1.606,2.836,2.428
	c0.935,0.821,1.859,1.654,2.773,2.498c0.915,0.844,1.818,1.699,2.712,2.566c0.895,0.865,1.775,1.742,2.647,2.632
	c0.871,0.889,1.73,1.788,2.581,2.697c0.849,0.909,1.687,1.83,2.513,2.762c0.827,0.931,1.642,1.871,2.444,2.821
	c0.803,0.951,1.594,1.913,2.373,2.884c0.778,0.97,1.546,1.949,2.301,2.938s1.497,1.988,2.227,2.996
	c0.73,1.008,1.446,2.025,2.151,3.051c0.704,1.026,1.396,2.062,2.075,3.104c0.679,1.042,1.345,2.094,1.998,3.153
	c0.651,1.06,1.292,2.127,1.919,3.202c0.626,1.075,1.237,2.159,1.838,3.25c0.6,1.091,1.185,2.188,1.757,3.294
	c0.572,1.104,1.131,2.218,1.675,3.338c0.544,1.118,1.074,2.244,1.591,3.377c0.518,1.132,1.021,2.271,1.509,3.416
	c0.486,1.145,0.962,2.295,1.422,3.451c0.459,1.156,0.903,2.318,1.335,3.485c0.431,1.168,0.847,2.341,1.248,3.521
	c0.4,1.178,0.789,2.359,1.161,3.548c13.088,40.352,9.875,82.392-9.412,120.196c-13.764,26.975-43.601,58.869-72.046,69.682
	l0.06,51.974c-5.019,3.195-10.005,6.467-15.076,9.576l0.444-71.422c28.313-11.814,54.037-35.285,69.382-61.755
	c17.671-30.484,23.121-69.714,13.807-103.816c-0.302-1.104-0.616-2.208-0.944-3.306c-0.329-1.098-0.671-2.191-1.027-3.281
	c-0.354-1.089-0.725-2.175-1.106-3.255c-0.383-1.081-0.778-2.156-1.188-3.228c-0.409-1.07-0.831-2.137-1.266-3.195
	c-0.437-1.062-0.884-2.116-1.346-3.165c-0.461-1.05-0.936-2.093-1.422-3.131c-0.485-1.038-0.984-2.069-1.498-3.095
	c-0.512-1.025-1.036-2.045-1.573-3.058s-1.087-2.019-1.648-3.017c-0.563-1-1.136-1.992-1.722-2.978
	c-0.587-0.983-1.187-1.962-1.796-2.932c-0.61-0.971-1.232-1.933-1.866-2.889c-0.634-0.954-1.28-1.9-1.938-2.841
	c-0.657-0.939-1.326-1.869-2.006-2.792s-1.372-1.836-2.075-2.74c-0.702-0.906-1.416-1.804-2.141-2.69s-1.461-1.767-2.207-2.637
	s-1.503-1.731-2.271-2.582c-0.769-0.852-1.547-1.692-2.334-2.524c-0.788-0.832-1.588-1.653-2.396-2.467
	c-0.809-0.813-1.627-1.615-2.455-2.407c-0.829-0.793-1.667-1.573-2.514-2.346c-0.849-0.771-1.704-1.533-2.57-2.284
	c-0.866-0.75-1.742-1.489-2.626-2.219c-0.885-0.729-1.778-1.447-2.68-2.154c-0.902-0.707-1.813-1.402-2.732-2.088
	c-0.919-0.685-1.847-1.357-2.781-2.02c-0.937-0.662-1.881-1.313-2.832-1.95c-0.951-0.639-1.91-1.267-2.879-1.881
	c-0.967-0.616-1.94-1.22-2.924-1.811c-0.982-0.591-1.971-1.17-2.967-1.736c-33.525-19.104-71.159-24.353-108.489-14.027
	c-35.06,9.696-64.664,34.876-82.426,66.237c-0.556,0.984-1.099,1.977-1.629,2.976c-0.531,0.999-1.05,2.003-1.557,3.014
	c-0.506,1.013-0.999,2.029-1.479,3.055c-0.479,1.021-0.949,2.052-1.404,3.087c-0.454,1.035-0.896,2.075-1.326,3.122
	c-0.43,1.046-0.847,2.097-1.249,3.151c-0.403,1.058-0.793,2.118-1.171,3.186c-0.377,1.064-0.74,2.136-1.092,3.211
	c-0.351,1.075-0.688,2.153-1.012,3.237s-0.635,2.171-0.932,3.263c-0.297,1.091-0.58,2.185-0.851,3.282
	c-0.27,1.1-0.525,2.199-0.769,3.305c-0.243,1.104-0.471,2.212-0.688,3.322c-0.215,1.108-0.416,2.223-0.604,3.338
	c-0.188,1.115-0.361,2.231-0.521,3.352c-0.158,1.119-0.305,2.24-0.437,3.363s-0.251,2.248-0.355,3.374
	c-0.104,1.126-0.192,2.253-0.27,3.381s-0.139,2.257-0.188,3.387c-0.048,1.13-0.082,2.261-0.103,3.391
	c-0.021,1.131-0.026,2.262-0.02,3.393c0.008,1.131,0.029,2.261,0.065,3.392s0.086,2.261,0.149,3.39
	c0.063,1.129,0.142,2.257,0.232,3.384s0.197,2.253,0.317,3.377c0.119,1.125,0.252,2.248,0.398,3.369
	c0.148,1.12,0.311,2.239,0.484,3.356c0.174,1.116,0.364,2.23,0.566,3.345c0.203,1.111,0.421,2.222,0.649,3.328
	c0.23,1.106,0.476,2.212,0.732,3.313c0.258,1.103,0.528,2.199,0.813,3.293c0.285,1.096,0.583,2.187,0.896,3.271
	c9.041,32.224,30.544,60.193,57.974,79.16c7.415,5.127,15.541,9.359,23.403,13.766c-1.019,16.507-0.415,33.401-0.539,49.955
	c-0.051,6.805,0.149,13.738-0.542,20.509l-14.043-9.918C444.371,795.443,444.539,777.98,444.114,760.563z"/>
<path fill="#002429" d="M459.572,752.322c-7.862-4.405-15.988-8.64-23.403-13.767c-27.43-18.966-48.933-46.937-57.974-79.159
	c-0.313-1.087-0.61-2.178-0.896-3.271c-0.284-1.094-0.556-2.191-0.813-3.293c-0.258-1.102-0.502-2.205-0.732-3.313
	c-0.229-1.105-0.446-2.216-0.649-3.327c-0.202-1.113-0.393-2.229-0.566-3.346c-0.174-1.116-0.336-2.235-0.484-3.355
	c-0.146-1.121-0.279-2.244-0.398-3.369c-0.12-1.124-0.227-2.25-0.317-3.377s-0.17-2.255-0.232-3.384
	c-0.063-1.129-0.113-2.26-0.149-3.391c-0.036-1.13-0.058-2.26-0.065-3.391c-0.007-1.131-0.002-2.262,0.02-3.394
	c0.021-1.13,0.055-2.26,0.103-3.39c0.05-1.13,0.111-2.259,0.188-3.387s0.166-2.255,0.27-3.381c0.104-1.126,0.225-2.251,0.355-3.374
	s0.277-2.244,0.437-3.363c0.16-1.119,0.334-2.236,0.521-3.352c0.187-1.116,0.389-2.229,0.604-3.339
	c0.217-1.109,0.444-2.218,0.688-3.321c0.243-1.104,0.499-2.205,0.769-3.306c0.271-1.098,0.554-2.19,0.851-3.281
	c0.297-1.093,0.606-2.18,0.932-3.264c0.324-1.083,0.661-2.162,1.012-3.236c0.352-1.075,0.715-2.146,1.092-3.212
	c0.378-1.065,0.768-2.128,1.171-3.185c0.402-1.056,0.819-2.106,1.249-3.152c0.43-1.047,0.872-2.087,1.327-3.122
	c0.454-1.034,0.924-2.063,1.403-3.089c0.48-1.021,0.975-2.04,1.479-3.052c0.507-1.011,1.024-2.015,1.557-3.014
	c0.53-0.999,1.073-1.99,1.629-2.977c17.762-31.36,47.366-56.541,82.426-66.236c37.33-10.324,74.965-5.075,108.489,14.026
	c0.996,0.567,1.984,1.146,2.967,1.737c0.983,0.591,1.957,1.193,2.925,1.81c0.968,0.615,1.927,1.241,2.878,1.881
	c0.951,0.639,1.896,1.289,2.831,1.95c0.937,0.661,1.863,1.335,2.782,2.021c0.92,0.685,1.83,1.381,2.732,2.088
	c0.9,0.707,1.795,1.425,2.68,2.154c0.884,0.729,1.76,1.469,2.626,2.219c0.866,0.751,1.723,1.512,2.57,2.284
	c0.847,0.771,1.685,1.553,2.514,2.346c0.828,0.792,1.646,1.595,2.455,2.407c0.808,0.813,1.606,1.635,2.396,2.467
	c0.788,0.832,1.565,1.674,2.334,2.524c0.768,0.85,1.523,1.712,2.271,2.582c0.747,0.869,1.482,1.748,2.207,2.637
	c0.725,0.888,1.438,1.784,2.141,2.689s1.396,1.818,2.075,2.741c0.681,0.922,1.35,1.854,2.006,2.792
	c0.657,0.939,1.305,1.886,1.938,2.84c0.634,0.956,1.256,1.918,1.866,2.89c0.609,0.97,1.209,1.946,1.796,2.932
	c0.586,0.984,1.159,1.978,1.722,2.978c0.563,0.997,1.111,2.004,1.648,3.017c0.538,1.013,1.063,2.031,1.573,3.057
	c0.514,1.025,1.013,2.059,1.498,3.097c0.486,1.037,0.961,2.08,1.422,3.13c0.461,1.049,0.909,2.104,1.346,3.165
	c0.435,1.06,0.855,2.125,1.266,3.194c0.408,1.071,0.805,2.146,1.188,3.229c0.383,1.08,0.752,2.166,1.106,3.255
	c0.356,1.09,0.698,2.184,1.027,3.281c0.328,1.098,0.644,2.2,0.944,3.306c9.314,34.104,3.864,73.332-13.807,103.816
	c-15.345,26.47-41.068,49.939-69.382,61.755l-0.444,71.422c-10.163,7.626-22.977,13.791-34.676,18.743
	c-5.813,2.521-11.742,4.681-17.264,7.813c-5.585-2.399-11.063-5.194-16.563-7.795c-12.788-5.306-24.674-12.808-36.555-19.849
	c0.691-6.771,0.491-13.704,0.542-20.509C459.157,785.724,458.555,768.829,459.572,752.322z"/>
<path fill="#F8F9FA" d="M494.847,626.064c-10.506-6.449-18.891-13.483-21.886-26.052c-2.347-9.848-0.798-21.023,4.612-29.629
	c0.345-0.544,0.702-1.079,1.073-1.604c0.368-0.527,0.753-1.044,1.147-1.553c0.396-0.508,0.804-1.005,1.224-1.491
	c0.422-0.488,0.854-0.967,1.298-1.434c0.442-0.467,0.896-0.922,1.361-1.366c0.466-0.443,0.942-0.877,1.431-1.298
	c0.485-0.421,0.982-0.83,1.489-1.228c0.507-0.396,1.023-0.781,1.55-1.152c0.524-0.372,1.06-0.729,1.603-1.076
	c0.543-0.345,1.095-0.677,1.654-0.995c0.559-0.318,1.126-0.623,1.698-0.914c0.575-0.291,1.156-0.567,1.743-0.83
	c0.588-0.264,1.184-0.512,1.782-0.744c0.602-0.233,1.205-0.452,1.816-0.656c0.608-0.204,1.225-0.393,1.845-0.567
	c0.62-0.174,1.243-0.332,1.871-0.476c10.156-2.297,22.171-0.914,31.05,4.718c8.479,5.377,14.715,15.029,16.749,24.804
	c2.051,9.858,0.271,20.49-5.298,28.916c-3.992,6.041-9.604,10.432-15.775,14.084l-0.013,217.095
	c-5.813,2.521-11.742,4.681-17.264,7.813c-5.585-2.399-11.063-5.194-16.563-7.795L494.847,626.064z"/>
<path fill="#002429" d="M511.345,199.88c8.741,6.379,24.654,13.242,34.734,18.036c32.405,15.411,65.222,28.972,98.628,42.027
	c9.457,3.696,19.206,6.547,28.611,10.381c0.025,7.559-0.034,15.134,0.357,22.685c16.563,6.782,33.768,12.742,49.938,20.346
	l-0.086,186.233l0.061,51.88c0.021,19.409,0.156,38.142-2.863,57.39c-12.528,79.895-62.771,148.237-127.198,195.125
	c-0.172-11.021-0.178-22.043-0.02-33.064c23.759-10.177,48.923-36.994,62.881-58.711c0.739-1.176,1.465-2.36,2.177-3.554
	c0.711-1.194,1.406-2.396,2.089-3.604c0.682-1.209,1.349-2.429,2.002-3.655c0.651-1.226,1.29-2.459,1.913-3.699
	c0.622-1.241,1.229-2.491,1.821-3.747c0.594-1.256,1.17-2.521,1.731-3.789c0.563-1.271,1.109-2.547,1.64-3.83
	c0.531-1.283,1.049-2.573,1.549-3.869c0.5-1.295,0.983-2.597,1.452-3.905c0.47-1.307,0.923-2.62,1.359-3.938
	c0.437-1.319,0.857-2.644,1.263-3.973c0.405-1.327,0.795-2.659,1.167-3.999c0.374-1.338,0.73-2.68,1.07-4.025
	c0.341-1.348,0.665-2.697,0.973-4.052c0.31-1.354,0.601-2.713,0.875-4.073c0.275-1.361,0.534-2.727,0.776-4.094
	s0.469-2.738,0.678-4.11c0.209-1.373,0.402-2.749,0.578-4.127s0.335-2.757,0.479-4.141c0.143-1.381,0.269-2.764,0.378-4.147
	c0.107-1.385,0.201-2.771,0.276-4.157c0.076-1.386,0.137-2.774,0.18-4.163c0.042-1.388,0.067-2.776,0.075-4.165
	c0.011-1.389,0.002-2.778-0.021-4.167c-0.024-1.389-0.066-2.775-0.124-4.164c-0.06-1.388-0.133-2.773-0.225-4.16
	c-0.093-1.387-0.2-2.771-0.324-4.153c-0.125-1.384-0.268-2.766-0.426-4.146c-0.157-1.38-0.332-2.758-0.523-4.134
	c-0.192-1.375-0.4-2.748-0.625-4.119c-0.225-1.37-0.465-2.738-0.723-4.103c-0.259-1.365-0.531-2.729-0.822-4.085
	c-2.371-10.784-6.288-21.367-10.644-31.505c-16.248-37.832-38.734-58.161-72.405-79.853c17.347-19.045,26.669-42.831,27.575-68.553
	c1.025-29.033-8.146-57.234-28.192-78.648c-0.655-0.706-1.318-1.402-1.99-2.091c-0.673-0.688-1.354-1.369-2.042-2.04
	c-0.688-0.672-1.386-1.335-2.092-1.99c-0.705-0.654-1.419-1.3-2.14-1.937c-0.723-0.637-1.451-1.264-2.188-1.883
	s-1.482-1.228-2.234-1.828c-0.752-0.601-1.512-1.192-2.277-1.773c-0.768-0.582-1.541-1.153-2.321-1.715
	c-0.781-0.562-1.569-1.114-2.364-1.657c-0.794-0.542-1.596-1.075-2.401-1.598c-0.81-0.522-1.623-1.035-2.443-1.538
	c-0.82-0.502-1.646-0.995-2.479-1.477s-1.673-0.954-2.517-1.415c-0.845-0.461-1.694-0.912-2.551-1.352s-1.717-0.87-2.583-1.288
	c-0.866-0.419-1.737-0.828-2.614-1.224c-0.877-0.397-1.758-0.784-2.644-1.159c-0.888-0.375-1.777-0.739-2.672-1.093
	c-0.896-0.353-1.795-0.695-2.698-1.026s-1.812-0.65-2.724-0.959c-0.91-0.308-1.826-0.605-2.744-0.891
	c-0.919-0.285-1.843-0.56-2.769-0.822c-0.925-0.263-1.854-0.515-2.786-0.754c-0.932-0.24-1.865-0.468-2.804-0.685
	c-0.938-0.216-1.878-0.42-2.821-0.614c-0.941-0.193-1.888-0.375-2.835-0.545c-0.945-0.169-1.896-0.328-2.847-0.474
	c-0.951-0.146-1.904-0.28-2.858-0.403s-1.909-0.233-2.866-0.332c-0.958-0.1-1.916-0.187-2.875-0.261
	c-0.959-0.075-1.92-0.139-2.882-0.19c-0.96-0.051-1.922-0.091-2.884-0.118c-24.761-0.384-51.29,8.371-70.6,23.926
	c-24.582,19.802-39.698,45.186-43.029,76.888c-3.509,33.397,7.885,57.994,28.244,83.278c-23.365,14.563-42.698,31.402-58.176,54.357
	c-25.113,37.245-33.562,85.054-24.922,128.994c7.669,39.013,30.934,73.807,61.435,98.844c7.096,5.825,15.001,10.8,22.609,15.922
	c1.438,10.479,0.577,21.994,0.557,32.592c-8.114-6.05-15.98-12.405-23.601-19.066c-7.62-6.662-14.97-13.61-22.05-20.845
	c-47.588-48.28-77.946-108.394-83.145-176.45c-1.075-14.076-0.608-28.289-0.555-42.397c0.071-18.927,0.043-37.854-0.084-56.781
	l0.034-172.708c8.472-3.878,16.606-8.578,24.918-12.793c7.644-3.876,15.489-7.326,23.121-11.237
	c0.042-7.522,0.133-15.044,0.271-22.565c7.741-2.479,15.617-4.553,23.317-7.164C417.005,245.934,470.457,224.115,511.345,199.88z"/>
<path fill="#002429" d="M331.959,332.498c1.274-0.111,2.893-0.378,4.134-0.001c2.142,0.649,3.946,2.06,4.994,4.05
	c1.073,2.035,1.166,4.531,0.484,6.705c-0.9,2.869-2.745,4.145-5.265,5.563c-1.115,0.121-2.303,0.287-3.422,0.129
	c-2.045-0.289-4.021-1.424-5.203-3.128c-1.263-1.823-1.454-4.184-1.031-6.31C327.31,336.174,329.269,334.36,331.959,332.498z"/>
<path fill="#002429" d="M330.349,357.556c1.611-0.14,3.293-0.3,4.905-0.109c2.807,0.33,5.179,1.652,6.754,4.035
	c2.782,4.208,2.215,27.466,0.716,32.929c-0.811,2.956-2.962,4.411-5.466,5.909c-1.714,0.313-3.758,0.603-5.474,0.189
	c-2.283-0.547-4.17-2.255-5.375-4.216c-3.308-5.377-2.886-25.382-1.258-31.769C326.021,361.112,327.351,359.358,330.349,357.556z"/>
</svg>
