<?xml version="1.0" encoding="UTF-8" standalone="no"?>
<!-- Created with Inkscape (http://www.inkscape.org/) -->

<svg
   version="1.1"
   id="svg2"
   width="621.88"
   height="610.58667"
   viewBox="0 0 621.88 610.58667"
   sodipodi:docname="3054581.eps"
   xmlns:inkscape="http://www.inkscape.org/namespaces/inkscape"
   xmlns:sodipodi="http://sodipodi.sourceforge.net/DTD/sodipodi-0.dtd"
   xmlns="http://www.w3.org/2000/svg"
   xmlns:svg="http://www.w3.org/2000/svg">
  <defs
     id="defs6">
    <clipPath
       clipPathUnits="userSpaceOnUse"
       id="clipPath362">
      <path
         d="m 1645.56,2562 c 7,4.86 11.26,14.21 11.26,27.17 v 0 0 c 0,27.68 -19.43,61.32 -43.39,75.16 -6.97,4.02 -13.55,5.93 -19.38,5.93 -3.57,0 -6.85,-0.71 -9.77,-2.09 l 0.41,0.28 0.07,0.04 c 2.79,1.2 5.89,1.82 9.23,1.82 5.86,0 12.48,-1.92 19.48,-6 6.41,-3.63 12.39,-8.76 17.84,-14.74 l 216.85,125.2 c -4.58,5.03 -9.53,9.45 -14.74,12.95 22.55,-14.81 40.36,-46.79 40.36,-73.28 0,-14.06 -5.04,-23.81 -13.11,-28.25 l -1.56,-0.9 -9.29,-5.36 -11.43,-6.6 -15,-8.66 L 1645.56,2562 m 177.13,231.25 c -4.13,1.51 -8.04,2.23 -11.66,2.23 -1.77,0 -3.48,-0.17 -5.1,-0.51 1.64,0.35 3.35,0.53 5.14,0.53 3.61,0 7.51,-0.73 11.62,-2.25"
         id="path360" />
    </clipPath>
  </defs>
  <sodipodi:namedview
     id="namedview4"
     pagecolor="#ffffff"
     bordercolor="#000000"
     borderopacity="0.25"
     inkscape:showpageshadow="2"
     inkscape:pageopacity="0.0"
     inkscape:pagecheckerboard="0"
     inkscape:deskcolor="#d1d1d1" />
  <g
     id="g8"
     inkscape:groupmode="layer"
     inkscape:label="ink_ext_XXXXXX"
     transform="matrix(1.3333333,0,0,-1.3333333,0,610.58667)">
    <g
       id="g10"
       transform="scale(0.1)">
      <path
         d="m 3981.03,2298.45 c 910.72,-525.8 910.72,-1378.29 -0.01,-1904.098 -910.71,-525.801 -2387.28,-525.801 -3297.989,0 -910.711,525.796 -910.707,1378.288 0.012,1904.098 910.717,525.8 2387.277,525.81 3297.987,0"
         style="fill:#fafaf9;fill-opacity:1;fill-rule:nonzero;stroke:none"
         id="path12" />
      <path
         d="m 3049.46,773.23 435.58,-252.75 c 14.33,-8.32 37.59,-8.351 51.94,-0.07 l 638.54,368.149 c 14.34,8.273 14.35,21.711 0.02,30 l -435.51,251.951 c -14.35,8.3 -37.62,8.33 -51.97,0.07 L 3049.51,803.25 c -14.35,-8.262 -14.38,-21.699 -0.05,-30.02"
         style="fill:#dadbd8;fill-opacity:1;fill-rule:nonzero;stroke:none"
         id="path14" />
      <path
         d="m 846.754,658.148 15.633,-9.027 c 7.668,-4.43 20.093,-4.43 27.754,0 L 3422.54,2111.2 c 7.67,4.42 7.67,11.59 0,16.02 l -15.66,9.03 c -7.65,4.43 -20.08,4.43 -27.75,0 L 846.754,674.172 c -7.668,-4.422 -7.668,-11.594 0,-16.024"
         style="fill:#dadbd8;fill-opacity:1;fill-rule:nonzero;stroke:none"
         id="path16" />
      <path
         d="m 4165.87,1980.85 20.96,25.01 -636.28,367.37 -43.11,-24.89 226.01,-130.47 -217,-125.28 -227.94,131.6 -43.1,-24.88 651.3,-375.99 6.84,8.17 3.42,-1.98 249.82,143.97 1.96,-1.13 3.66,4.37 5.31,3.06 -1.85,1.07"
         style="fill:#dadbd8;fill-opacity:1;fill-rule:nonzero;stroke:none"
         id="path18" />
      <path
         d="m 4015.5,1279.38 c 59.69,-34.46 156.45,-34.46 216.13,0 59.69,34.46 59.69,90.33 0,124.79 -59.68,34.46 -156.44,34.46 -216.13,0 -59.68,-34.46 -59.68,-90.33 0,-124.79"
         style="fill:#dadbd8;fill-opacity:1;fill-rule:nonzero;stroke:none"
         id="path20" />
      <path
         d="m 452.438,2891.12 c -66.153,-52.01 -129.485,-37.85 -141.446,31.63 -11.965,69.48 42.168,157.76 108.313,209.76 66.156,52.01 119.273,48.06 131.238,-21.42 11.969,-69.48 -31.957,-167.96 -98.105,-219.97 z m 245.57,381.38 0.008,-0.11 c -3.051,1.84 -7.075,1.68 -11.192,-1.03 l -54.031,-35.56 c -7.395,-4.87 -16.613,-2.36 -21.691,4.9 -3.258,4.65 -6.782,8.95 -10.532,12.89 -6.101,6.41 -9.402,17.44 -6.332,25.74 l 85.867,54.42 -64.105,36.99 -0.047,-0.06 c -1.281,0.74 -2.66,1.36 -4.238,1.71 l -40.731,9.11 c -8.632,1.93 -18.968,-2.86 -23.078,-10.69 l -38.297,-72.98 c -4.113,-7.83 -14.558,-15.22 -23.136,-17.4 l -2.364,-0.69 c 2.36,6.91 3.356,16.98 3.356,16.98 l -64.289,37.1 0.012,-0.07 c -3.438,2.01 -7.872,1.63 -12.047,-1.66 l -61.036,-47.98 c -6.957,-5.47 -12.144,-17.07 -11.593,-25.9 l 3.64,-58.06 c 0.551,-8.83 -3.816,-21.32 -9.492,-28.1 -10.004,-11.97 -19.469,-24.52 -28.344,-37.52 -4.992,-7.31 -15.996,-13.02 -24.836,-12.58 l -39.23,1.93 c -8.84,0.44 -18.926,-5.76 -22.531,-13.84 l -36.891,-82.7 c -3.305,-7.4 -0.445,-15.82 6.297,-19.87 l -0.02,-0.07 43.497,-25.09 c 1.402,-3.57 1.863,-7.51 1.015,-11.26 -3.023,-13.3 -5.308,-26.49 -6.793,-39.45 -1.011,-8.79 -6.715,-20.81 -13.226,-26.8 l -54.075,-49.72 c -6.515,-5.99 -10.582,-17.91 -9.078,-26.64 l 10.157,-58.98 c 0.66,-3.84 2.472,-6.52 4.875,-7.98 l -0.079,-0.06 64.497,-37.22 0.851,73.83 c 7.391,4.87 16.613,2.36 21.688,-4.88 3.265,-4.67 6.785,-8.96 10.535,-12.91 6.101,-6.41 9.398,-17.43 6.332,-25.74 l -27.555,-74.52 c -2.445,-6.62 -0.027,-13.17 5.399,-16.56 l -0.043,-0.06 64.394,-37.16 17.547,47.98 24.887,61.83 c 4.109,7.83 14.558,15.21 23.136,17.4 8.2,2.08 16.571,4.84 25.079,8.29 8.203,3.32 16.707,-0.33 19.257,-8.8 l 13.778,-45.71 c 1.031,-3.42 2.922,-5.8 5.25,-7.13 l -0.051,-0.04 64.586,-37.24 -11.301,71.41 19.766,15.54 c 6.953,5.47 12.144,17.06 11.593,25.9 l -3.644,58.06 c -0.551,8.84 3.82,21.32 9.504,28.1 10.004,11.97 25.101,18.36 33.976,31.35 4.993,7.31 10.36,19.2 19.196,18.76 l 39.238,-1.94 c 8.84,-0.44 18.926,5.76 22.531,13.85 l 36.891,82.7 c 3.601,8.08 -0.074,17.44 -8.215,20.91 l -31.699,13.52 c -8.141,3.48 -12.84,13.22 -10.879,21.85 3.023,13.3 5.308,26.48 6.793,39.45 1.004,8.79 6.707,20.8 13.223,26.8 l 54.074,49.72 c 4.625,4.25 7.902,11.5 8.941,18.47 l 49.117,38.3 -64.062,36.97"
         style="fill:#17282f;fill-opacity:1;fill-rule:nonzero;stroke:none"
         id="path22" />
      <path
         d="m 210.992,2904.25 -53.469,-49.17 c -3.949,-3.63 -6.796,-9.46 -8.25,-15.41 l 79.422,-45.86 0.051,4.22 c 7.391,4.87 16.613,2.36 21.688,-4.88 l 0.074,-0.09 76.535,44.19 -116.051,67"
         style="fill:#33535f;fill-opacity:1;fill-rule:nonzero;stroke:none"
         id="path24" />
      <path
         d="m 347.23,3053.1 c 6.032,9.33 12.618,18.43 19.672,27.19 l -76.214,44.04 c -3.739,-1.54 -7.633,-2.56 -11.208,-2.38 l -39.23,1.93 c -5.57,0.28 -11.633,-2.09 -16.262,-5.9 l 117.325,-67.73 5.917,2.85"
         style="fill:#33535f;fill-opacity:1;fill-rule:nonzero;stroke:none"
         id="path26" />
      <path
         d="m 762.09,3235.57 c -2.988,1.71 -6.938,1.39 -11,-1.29 l -54.055,-35.57 c -7.367,-4.81 -16.558,-2.35 -21.683,4.92 -3.309,4.7 -6.735,8.97 -10.579,12.92 -6.085,6.41 -9.398,17.41 -6.3,25.75 l 5.129,13.78 23.179,15.27 c 4.164,2.68 8.231,2.89 11.215,1.07 v 0.11 l 64.094,-36.96"
         style="fill:#33535f;fill-opacity:1;fill-rule:nonzero;stroke:none"
         id="path28" />
      <path
         d="m 602.367,3251.39 -1.797,2.2 c -6.101,6.41 -9.402,17.44 -6.332,25.74 l 85.867,54.42 -64.105,36.99 -0.047,-0.06 c -1.281,0.74 -2.66,1.36 -4.238,1.71 l -40.731,9.11 c -8.632,1.93 -18.968,-2.86 -23.078,-10.69 l -38.297,-72.98 c -1.847,-3.52 -5.074,-6.88 -8.742,-9.79 l 86.524,-49.96 14.976,13.31"
         style="fill:#33535f;fill-opacity:1;fill-rule:nonzero;stroke:none"
         id="path30" />
      <path
         d="m 340.066,3268.11 79.454,-45.87 65.304,59.85 c 1.84,6.63 2.641,14.63 2.641,14.63 l -64.289,37.1 0.012,-0.07 c -3.438,2.01 -7.872,1.63 -12.047,-1.66 l -61.036,-47.98 c -4.515,-3.56 -8.097,-9.71 -10.039,-16"
         style="fill:#33535f;fill-opacity:1;fill-rule:nonzero;stroke:none"
         id="path32" />
      <path
         d="m 516.684,2854.04 c -66.153,-52 -129.477,-37.84 -141.446,31.64 -11.961,69.47 31.969,167.96 98.121,219.96 66.149,52.01 129.469,37.85 141.438,-31.62 11.961,-69.48 -31.961,-167.96 -98.113,-219.98 z m 260.656,314.29 -10.156,58.98 c -1.504,8.72 -8.711,11.84 -16.106,6.98 l -54.031,-35.56 c -7.395,-4.87 -16.617,-2.36 -21.695,4.89 -3.262,4.66 -6.782,8.96 -10.532,12.9 -6.105,6.41 -9.406,17.43 -6.336,25.73 l 27.563,74.54 c 3.07,8.3 -1.449,16.6 -10.078,18.53 l -40.731,9.11 c -8.636,1.93 -18.972,-2.86 -23.086,-10.7 l -38.289,-72.97 c -4.113,-7.84 -14.566,-15.22 -23.14,-17.4 -8.2,-2.09 -16.575,-4.84 -25.086,-8.29 -8.207,-3.32 -16.703,0.33 -19.254,8.8 l -13.77,45.71 c -2.554,8.47 -10.265,10.91 -17.222,5.44 l -61.036,-47.99 c -6.957,-5.47 -12.148,-17.06 -11.593,-25.89 l 3.64,-58.07 c 0.551,-8.83 -3.812,-21.31 -9.492,-28.1 -10.008,-11.96 -19.469,-24.51 -28.34,-37.51 -4.992,-7.31 -15.996,-13.02 -24.84,-12.59 l -39.234,1.94 c -8.836,0.43 -18.926,-5.76 -22.527,-13.85 l -36.891,-82.7 c -3.605,-8.08 0.074,-17.45 8.211,-20.92 l 31.695,-13.52 c 8.141,-3.47 12.844,-13.21 10.879,-21.84 -3.019,-13.3 -5.308,-26.49 -6.793,-39.46 -1.004,-8.79 -6.707,-20.8 -13.222,-26.79 L 221.773,2818 c -6.515,-5.99 -10.582,-17.91 -9.078,-26.63 l 10.157,-58.99 c 1.503,-8.72 8.711,-11.84 16.109,-6.98 l 54.035,35.56 c 7.395,4.87 16.613,2.36 21.692,-4.89 3.261,-4.66 6.777,-8.96 10.527,-12.9 6.101,-6.41 9.402,-17.44 6.332,-25.74 l -27.555,-74.53 c -3.062,-8.3 1.446,-16.59 10.086,-18.53 l 40.719,-9.1 c 8.637,-1.93 18.969,2.85 23.086,10.69 l 38.293,72.97 c 4.117,7.84 14.566,15.22 23.14,17.4 8.2,2.09 16.571,4.84 25.082,8.29 8.204,3.32 16.7,-0.33 19.254,-8.8 l 13.774,-45.71 c 2.558,-8.47 10.265,-10.9 17.222,-5.44 l 61.032,47.99 c 6.953,5.47 12.148,17.06 11.59,25.89 l -3.637,58.07 c -0.559,8.83 3.816,21.31 9.496,28.1 10.008,11.96 19.469,24.52 28.344,37.51 4.992,7.31 15.992,13.03 24.836,12.6 l 39.234,-1.94 c 8.836,-0.44 18.926,5.76 22.527,13.84 l 36.891,82.7 c 3.609,8.08 -0.07,17.45 -8.207,20.92 l -31.699,13.52 c -8.145,3.47 -12.844,13.22 -10.879,21.84 3.019,13.3 5.304,26.49 6.793,39.45 1.004,8.8 6.703,20.81 13.215,26.8 l 54.078,49.73 c 6.511,5.99 10.582,17.92 9.078,26.64"
         style="fill:#273e47;fill-opacity:1;fill-rule:nonzero;stroke:none"
         id="path34" />
      <path
         d="m 714.508,1972.6 c -119.805,-69.18 -194.278,-20.1 -194.278,118.25 0,138.34 99.008,307.81 218.825,376.98 119.808,69.17 192.386,18.85 192.386,-119.49 0,-138.35 -97.125,-306.57 -216.933,-375.74 z m 560.732,587.7 -63.27,36.48 -0.01,-0.05 c -2.6,1.49 -6.08,1.58 -9.93,-0.15 l -114.3,-51.53 c -8.06,-3.63 -16.36,0.38 -19.03,8.82 -6.64,21.01 -15.21,39.92 -25.48,56.67 -4.63,7.54 -5.67,19.76 -1.74,27.69 l 76.18,153.61 c 3.94,7.93 0.91,17.94 -6.76,22.37 l -82.67,47.73 c -7.66,4.42 -17.85,2.04 -22.75,-5.33 l -94.933,-142.78 c -4.899,-7.37 -16.016,-12.58 -24.863,-12.34 -10.746,0.28 -21.832,-0.28 -33.164,-1.55 v 104.4 l -63.426,36.58 v -0.02 c -2.821,1.5 -6.5,1.31 -10.383,-0.92 l -128.406,-74.14 c -7.664,-4.43 -14.524,-15.16 -15.317,-23.97 l -12.859,-142.89 c -0.789,-8.81 -6.848,-20.69 -13.356,-26.68 -24.988,-23.02 -48.855,-48.37 -71.332,-75.51 -5.644,-6.81 -16.875,-10.06 -25.23,-7.14 l -82.422,28.78 c -8.355,2.92 -18.715,-0.92 -23.141,-8.59 l -94.402,-163.5 c -4.426,-7.67 -2.578,-18.56 4.125,-24.34 l 66.145,-57 c 6.703,-5.77 9.5,-17.13 6.418,-25.43 -12.258,-33.03 -22.289,-66.38 -29.719,-99.53 -1.942,-8.64 -9.195,-19.8 -16.434,-24.9 l -117.304,-82.57 c -7.235,-5.09 -13.098,-16.4 -13.098,-25.25 v -148.27 c 0,-4.57 1.762,-7.88 4.559,-9.53 l -0.036,-0.03 63.254,-36.47 93.942,44.46 c 3.625,-7.61 7.484,-14.95 11.703,-21.83 4.625,-7.55 5.664,-19.77 1.734,-27.7 l -76.183,-153.61 c -3.93,-7.92 -0.907,-17.94 6.757,-22.36 l 82.676,-47.73 c 7.66,-4.43 17.848,-2.05 22.75,5.33 l 94.934,142.78 c 4.898,7.37 16.011,12.57 24.859,12.34 19.645,-0.51 40.309,1.52 61.824,6.27 8.641,1.91 16.258,-3.27 17.145,-12.08 l 12.527,-124.75 c 0.43,-4.26 2.289,-7.25 4.946,-8.74 l -0.036,-0.03 63.149,-36.41 75.828,111.39 c 7.668,4.43 14.519,15.16 15.312,23.97 l 12.864,142.88 c 0.793,8.82 8.269,18.2 16.429,21.62 36.68,15.36 73.77,41.91 99.747,69.97 6.007,6.49 17.226,9.75 25.574,6.82 l 50.601,-17.82 c 8.352,-2.94 18.702,0.89 23.132,8.55 l 94.4,163.51 c 4.43,7.67 2.58,18.56 -4.13,24.34 l -43.48,37.46 c -6.7,5.78 -9.48,17.14 -7.06,25.66 10.43,36.58 12.8,84.44 11.8,118.49 -0.26,8.85 5.09,20.14 12.33,25.24 l 117.31,82.57 c 7.24,5.09 13.1,16.4 13.1,25.24 l 56.06,67.21 2.54,54.24"
         style="fill:#17282f;fill-opacity:1;fill-rule:nonzero;stroke:none"
         id="path36" />
      <path
         d="m 1092.47,2741.04 25.19,50.8 c 3.94,7.93 0.91,17.94 -6.76,22.37 l -82.67,47.73 c -7.66,4.42 -17.85,2.04 -22.75,-5.33 l -94.933,-142.78 c -1.539,-2.32 -3.809,-4.3 -6.313,-6.09 l 106.266,-61.35 81.97,94.65"
         style="fill:#33535f;fill-opacity:1;fill-rule:nonzero;stroke:none"
         id="path38" />
      <path
         d="m 351.852,2124.79 c -2.747,-3.88 -5.872,-7.4 -9.071,-9.65 l -117.304,-82.57 c -2.954,-2.08 -5.539,-5.31 -7.727,-8.87 l 71.582,-41.33 155.731,88.6 -93.211,53.82"
         style="fill:#33535f;fill-opacity:1;fill-rule:nonzero;stroke:none"
         id="path40" />
      <path
         d="m 423.16,2519.39 c -6.605,-0.25 -13.211,-3.83 -16.512,-9.55 l -94.402,-163.5 c -2.055,-3.57 -2.633,-7.82 -2.117,-11.94 l 81.371,-46.99 129.219,174.81 -97.559,57.17"
         style="fill:#33535f;fill-opacity:1;fill-rule:nonzero;stroke:none"
         id="path42" />
      <path
         d="m 637.48,2750.37 100.68,-58.13 114.36,66.03 v 46.07 l -63.426,36.58 v -0.02 c -2.821,1.5 -6.5,1.31 -10.383,-0.92 l -128.406,-74.14 c -5.282,-3.05 -10.032,-9.13 -12.825,-15.47"
         style="fill:#33535f;fill-opacity:1;fill-rule:nonzero;stroke:none"
         id="path44" />
      <path
         d="m 777.656,1936.19 c -119.808,-69.18 -216.941,-13.1 -216.941,125.24 0,138.34 97.133,306.57 216.941,375.74 119.809,69.17 216.934,13.1 216.934,-125.24 0,-138.35 -97.125,-306.57 -216.934,-375.74 z m 502.134,466.25 v 148.29 c 0,8.85 -6.54,13.08 -14.61,9.44 l -114.3,-51.53 c -8.06,-3.63 -16.36,0.38 -19.03,8.82 -6.65,21 -15.22,39.92 -25.49,56.67 -4.62,7.54 -5.66,19.76 -1.73,27.69 l 76.18,153.61 c 3.94,7.93 0.91,17.94 -6.76,22.37 l -82.67,47.73 c -7.66,4.43 -17.85,2.04 -22.75,-5.33 l -94.942,-142.78 c -4.903,-7.37 -16.012,-12.57 -24.86,-12.34 -19.64,0.51 -40.305,-1.53 -61.816,-6.27 -8.645,-1.91 -16.254,3.27 -17.145,12.08 l -12.527,124.74 c -0.887,8.8 -7.813,12.35 -15.481,7.93 l -128.406,-74.14 c -7.668,-4.42 -14.523,-15.15 -15.312,-23.97 l -12.864,-142.88 c -0.797,-8.81 -6.843,-20.68 -13.359,-26.68 -24.988,-23.02 -48.852,-48.37 -71.328,-75.51 -5.649,-6.81 -16.875,-10.06 -25.231,-7.14 l -82.429,28.79 c -8.356,2.91 -18.715,-0.93 -23.141,-8.6 l -94.402,-163.52 c -4.426,-7.66 -2.578,-18.56 4.125,-24.33 l 66.14,-56.99 c 6.707,-5.78 9.504,-17.14 6.422,-25.43 -12.261,-33.04 -22.277,-66.39 -29.715,-99.53 -1.937,-8.64 -9.191,-19.8 -16.425,-24.9 l -117.305,-82.57 c -7.238,-5.09 -13.106,-16.4 -13.106,-25.25 v -148.28 c 0,-8.84 6.543,-13.07 14.61,-9.43 l 114.297,51.52 c 8.066,3.64 16.367,-0.38 19.031,-8.81 6.644,-21.01 15.215,-39.92 25.48,-56.68 4.618,-7.55 5.664,-19.77 1.735,-27.7 l -76.184,-153.6 c -3.929,-7.93 -0.906,-17.95 6.758,-22.37 l 82.676,-47.73 c 7.66,-4.42 17.847,-2.03 22.75,5.34 l 94.941,142.76 c 4.895,7.37 16.016,12.58 24.863,12.35 19.641,-0.5 40.305,1.53 61.821,6.28 8.64,1.91 16.254,-3.27 17.137,-12.08 l 12.535,-124.75 c 0.882,-8.81 7.812,-12.36 15.48,-7.93 l 128.406,74.14 c 7.668,4.43 14.524,15.16 15.313,23.97 l 12.863,142.88 c 0.793,8.82 6.844,20.69 13.36,26.68 24.984,23.01 48.839,48.36 71.312,75.49 5.645,6.82 16.879,10.07 25.234,7.16 l 82.429,-28.78 c 8.36,-2.92 18.72,0.93 23.14,8.59 l 94.41,163.51 c 4.43,7.67 2.57,18.56 -4.13,24.34 l -66.14,56.99 c -6.71,5.77 -9.5,17.14 -6.42,25.43 12.26,33.04 22.29,66.38 29.72,99.53 1.94,8.64 9.19,19.8 16.43,24.89 l 117.3,82.58 c 7.24,5.09 13.11,16.4 13.11,25.24"
         style="fill:#273e47;fill-opacity:1;fill-rule:nonzero;stroke:none"
         id="path46" />
      <path
         d="m 1275.28,2560.28 v -0.11 c -2.56,1.71 -6.19,1.82 -10.15,0 l -114.3,-51.49 c -8.01,-3.63 -16.34,0.32 -19.01,8.76 -4.49,14.42 -9.94,27.78 -16.35,40.17 l 86.53,38.99 c 3.85,1.71 7.37,1.6 9.94,0.11 v 0.1 l 63.34,-36.53"
         style="fill:#33535f;fill-opacity:1;fill-rule:nonzero;stroke:none"
         id="path48" />
      <path
         d="m 3905.55,3326.12 -357.22,-972.17 -0.08,-0.16 c -0.8,-2.48 -2.88,-4.81 -6.25,-6.73 -8.98,-5.21 -23.57,-5.21 -32.55,0 -3.92,2.24 -6.09,5.05 -6.65,8.02 v 2.64 c 0.08,2.16 0.48,4.41 1.28,6.66 l 358.18,977.61 c 4.41,11.94 17.63,18.11 29.58,13.71 11.95,-4.41 18.12,-17.64 13.71,-29.58"
         style="fill:#273e47;fill-opacity:1;fill-rule:nonzero;stroke:none"
         id="path50" />
      <path
         d="m 3413.05,2631.26 358.2,-206.81 30,51.96 -358.2,206.81 -30,-51.96"
         style="fill:#273e47;fill-opacity:1;fill-rule:nonzero;stroke:none"
         id="path52" />
      <path
         d="m 3673.55,2781.66 358.21,-206.81 30,51.96 -358.21,206.81 -30,-51.96"
         style="fill:#273e47;fill-opacity:1;fill-rule:nonzero;stroke:none"
         id="path54" />
      <path
         d="m 3614.07,3392.89 191.03,110.31 c 15.63,8.98 33.11,10.34 47.94,3.77 14.83,-6.57 25.49,-20.44 29.26,-38.08 l 317.13,-1483.7 c 0.25,-1.04 0.4,-2 0.4,-3.04 0.16,-1.04 0.16,-2.17 0.08,-3.21 -0.56,-2.88 -2.72,-5.69 -6.65,-7.94 -8.97,-5.21 -23.56,-5.21 -32.55,0 -3.37,2.01 -5.45,4.41 -6.33,6.9 l -0.32,1.36 -316.81,1480.01 c -0.73,3.21 -2.01,5.21 -2.97,5.61 -0.88,0.4 -3.21,0.08 -6.09,-1.6 l -191.11,-110.31 -23.01,39.92"
         style="fill:#33535f;fill-opacity:1;fill-rule:nonzero;stroke:none"
         id="path56" />
      <path
         d="m 3925.84,1975.02 -116.37,67.19 c -3.83,2.22 -6.94,7.6 -6.94,12.03 v 2.76 c 0,4.43 3.11,9.82 6.94,12.03 l 279.19,161.19 c 3.83,2.21 10.05,2.21 13.89,0 l 116.37,-67.19 c 3.82,-2.21 6.94,-7.6 6.94,-12.03 v -2.77 c 0,-4.42 -3.12,-9.81 -6.94,-12.02 l -279.19,-161.19 c -3.83,-2.21 -10.05,-2.21 -13.89,0"
         style="fill:#26b6a6;fill-opacity:1;fill-rule:nonzero;stroke:none"
         id="path58" />
      <path
         d="m 3932.78,1973.36 c -0.76,0 -1.53,0.05 -2.28,0.16 0.75,-0.11 1.52,-0.16 2.28,-0.16 v 0 M 3802.53,2057 c 0,0.06 0,0.11 0,0.17 0,-0.06 0,-0.11 0,-0.17 m 0,0.21 c 0,0.01 0,0.01 0,0.02 0,-0.01 0,-0.01 0,-0.02"
         style="fill:#c0c1bf;fill-opacity:1;fill-rule:nonzero;stroke:none"
         id="path60" />
      <path
         d="m 3932.78,1973.36 c -0.76,0 -1.53,0.05 -2.28,0.16 -1.71,0.23 -3.32,0.74 -4.66,1.5 v 0 l -116.37,67.19 c -3.83,2.22 -6.94,7.6 -6.94,12.03 v 0 2.76 0 c 0,0.06 0,0.11 0,0.17 0,0.01 0,0.03 0,0.04 0,0.01 0,0.01 0,0.02 0.05,2.16 0.82,4.51 2.04,6.62 l 128.21,-74.03 v -16.46"
         style="fill:#1db3a0;fill-opacity:1;fill-rule:nonzero;stroke:none"
         id="path62" />
      <path
         d="m 3932.78,1973.36 v 0 h 0.01 c 0.43,0 0.86,0.02 1.29,0.05 -0.43,-0.03 -0.86,-0.05 -1.3,-0.05"
         style="fill:#b4b6b4;fill-opacity:1;fill-rule:nonzero;stroke:none"
         id="path64" />
      <path
         d="m 4225.86,2151 c 0,0.06 0,0.11 0,0.17 0,-0.06 0,-0.11 0,-0.17 m 0,0.21 c 0,0.01 0,0.01 0,0.02 0,-0.01 0,-0.01 0,-0.02"
         style="fill:#d2d4d1;fill-opacity:1;fill-rule:nonzero;stroke:none"
         id="path66" />
      <path
         d="m 3932.79,1973.36 h -0.01 v 16.46 l 291.04,168.03 c 1.21,-2.11 1.99,-4.47 2.04,-6.62 0,-0.01 0,-0.01 0,-0.02 0,-0.01 0,-0.03 0,-0.04 0,-0.06 0,-0.11 0,-0.17 v 0 -2.77 c 0,-4.42 -3.12,-9.81 -6.94,-12.02 v 0 l -139.6,-80.59 -139.59,-80.6 v 0 c -1.59,-0.91 -3.59,-1.45 -5.65,-1.61 -0.43,-0.03 -0.86,-0.05 -1.29,-0.05"
         style="fill:#19b19d;fill-opacity:1;fill-rule:nonzero;stroke:none"
         id="path68" />
      <path
         d="m 3875.39,2210.96 -116.37,67.19 c -3.83,2.21 -6.94,7.59 -6.94,12.02 v 2.77 c 0,4.43 3.11,9.81 6.94,12.03 l 279.18,161.19 c 3.84,2.21 10.05,2.21 13.89,0 l 116.37,-67.19 c 3.83,-2.22 6.94,-7.6 6.94,-12.03 v -2.77 c 0,-4.42 -3.11,-9.81 -6.94,-12.02 l -279.19,-161.19 c -3.83,-2.21 -10.05,-2.21 -13.88,0"
         style="fill:#26b6a6;fill-opacity:1;fill-rule:nonzero;stroke:none"
         id="path70" />
      <path
         d="m 3882.32,2209.3 c -1.39,0 -2.78,0.17 -4.07,0.51 1.29,-0.34 2.68,-0.51 4.07,-0.51 v 0 m -130.24,83.64 c 0,2.21 0.77,4.67 2.03,6.85 v 0 c -1.25,-2.18 -2.03,-4.63 -2.03,-6.85"
         style="fill:#dbdcd9;fill-opacity:1;fill-rule:nonzero;stroke:none"
         id="path72" />
      <path
         d="m 3882.32,2209.3 c -1.39,0 -2.78,0.17 -4.07,0.51 -1.04,0.27 -2.01,0.66 -2.86,1.15 v 0 l -116.37,67.19 c -3.83,2.21 -6.94,7.59 -6.94,12.02 v 2.77 0 c 0,2.22 0.78,4.67 2.03,6.85 l 128.21,-74.04 v -16.45"
         style="fill:#1db3a0;fill-opacity:1;fill-rule:nonzero;stroke:none"
         id="path74" />
      <path
         d="m 4010.66,2281.04 v 0.01 l 70.13,40.49 v 0 l -51.92,-29.98 -18.21,-10.52 m 111.75,64.52 v 0 l 46.05,26.59 c 3.83,2.21 6.94,7.6 6.94,12.02 v 2.77 0 -2.77 c 0,-4.42 -3.11,-9.81 -6.94,-12.02 l -46.05,-26.59 m 52.99,41.38 c 0,0.04 0,0.08 0,0.12 0,-0.04 0,-0.08 0,-0.12 m -1.64,6.12 c -0.12,0.25 -0.26,0.49 -0.39,0.73 v 0 c 0.14,-0.24 0.27,-0.48 0.39,-0.73"
         style="fill:#d2d4d1;fill-opacity:1;fill-rule:nonzero;stroke:none"
         id="path76" />
      <path
         d="m 3882.32,2209.3 v 0 c 0.01,0 0.01,0 0.01,0 1.08,0 2.17,0.1 3.21,0.31 -1.04,-0.21 -2.13,-0.31 -3.22,-0.31 m 6.95,1.66 v 0 l 121.39,70.09 v -0.01 l -121.39,-70.08 v 0"
         style="fill:#ced0cd;fill-opacity:1;fill-rule:nonzero;stroke:none"
         id="path78" />
      <path
         d="m 4080.79,2321.54 v 0 l 41.62,24.02 v 0 l -41.62,-24.02"
         style="fill:#29444e;fill-opacity:1;fill-rule:nonzero;stroke:none"
         id="path80" />
      <path
         d="m 3882.33,2209.3 c 0,0 0,0 -0.01,0 v 16.45 l 291.05,168.04 c 0.13,-0.24 0.27,-0.48 0.39,-0.73 1,-1.95 1.62,-4.06 1.64,-6 0,-0.04 0,-0.08 0,-0.12 v 0 -2.77 c 0,-4.42 -3.11,-9.81 -6.94,-12.02 l -46.05,-26.59 -41.62,-24.02 -70.13,-40.49 -121.39,-70.09 v 0 c -1.09,-0.63 -2.37,-1.08 -3.73,-1.35 -1.04,-0.21 -2.13,-0.31 -3.21,-0.31"
         style="fill:#19b19d;fill-opacity:1;fill-rule:nonzero;stroke:none"
         id="path82" />
      <path
         d="m 3824.93,2446.9 -116.37,67.18 c -3.83,2.22 -6.94,7.6 -6.94,12.03 v 2.77 c 0,4.43 3.11,9.81 6.94,12.03 l 279.18,161.18 c 3.84,2.21 10.06,2.21 13.89,0 L 4118,2634.9 c 3.84,-2.21 6.94,-7.59 6.94,-12.02 v -2.77 c 0,-4.43 -3.1,-9.81 -6.94,-12.03 L 3838.82,2446.9 c -3.84,-2.21 -10.06,-2.21 -13.89,0"
         style="fill:#26b6a6;fill-opacity:1;fill-rule:nonzero;stroke:none"
         id="path84" />
      <path
         d="m 3831.87,2445.24 c -2.52,0 -5.02,0.55 -6.94,1.66 l -30.54,17.63 v 0 l 30.54,-17.63 c 1.92,-1.11 4.43,-1.66 6.94,-1.66 v 0 0"
         style="fill:#e0e1de;fill-opacity:1;fill-rule:nonzero;stroke:none"
         id="path86" />
      <path
         d="m 3794.39,2464.53 -27.64,15.96 -58.19,33.59 c -3.83,2.22 -6.94,7.6 -6.94,12.03 v 0 c 0,-4.43 3.11,-9.81 6.94,-12.03 l 85.83,-49.55 v 0"
         style="fill:#21363e;fill-opacity:1;fill-rule:nonzero;stroke:none"
         id="path88" />
      <path
         d="m 3831.87,2445.24 c -2.51,0 -5.02,0.55 -6.94,1.66 l -30.54,17.63 -85.83,49.55 c -3.83,2.22 -6.94,7.6 -6.94,12.03 v 2.77 c 0,2.21 0.78,4.67 2.03,6.84 l 128.22,-74.03 v -16.45 0"
         style="fill:#1db3a0;fill-opacity:1;fill-rule:nonzero;stroke:none"
         id="path90" />
      <path
         d="m 3831.87,2445.24 v 0 c 2.36,0 4.72,0.48 6.58,1.46 -1.87,-0.98 -4.22,-1.46 -6.58,-1.46 m 293.07,177.64 c 0,2.21 -0.78,4.67 -2.03,6.84 v 0 c 1.26,-2.17 2.03,-4.63 2.03,-6.84"
         style="fill:#d2d4d1;fill-opacity:1;fill-rule:nonzero;stroke:none"
         id="path92" />
      <path
         d="m 3831.87,2445.24 v 16.45 l 291.04,168.03 c 1.25,-2.17 2.03,-4.63 2.03,-6.84 v 0 -2.77 c 0,-4.43 -3.1,-9.81 -6.94,-12.03 v 0 l -139.59,-80.59 -139.59,-80.59 v 0 c -0.12,-0.07 -0.24,-0.14 -0.37,-0.2 -1.86,-0.98 -4.22,-1.46 -6.58,-1.46"
         style="fill:#19b19d;fill-opacity:1;fill-rule:nonzero;stroke:none"
         id="path94" />
      <path
         d="m 3774.47,2682.83 -116.36,67.19 c -3.83,2.21 -6.95,7.6 -6.95,12.03 v 2.77 c 0,4.43 3.12,9.81 6.95,12.02 l 279.18,161.19 c 3.83,2.21 10.05,2.21 13.88,0 l 116.37,-67.19 c 3.84,-2.21 6.94,-7.6 6.94,-12.02 v -2.77 c 0,-4.43 -3.1,-9.81 -6.94,-12.03 l -279.18,-161.19 c -3.84,-2.21 -10.05,-2.21 -13.89,0"
         style="fill:#26b6a6;fill-opacity:1;fill-rule:nonzero;stroke:none"
         id="path96" />
      <path
         d="m 3781.42,2681.17 v 0.01 c 1.58,0 3.17,0.22 4.61,0.66 -1.44,-0.44 -3.03,-0.67 -4.61,-0.67 m 6.19,1.28 c 0.02,0 0.04,0.01 0.06,0.02 -0.02,-0.01 -0.04,-0.02 -0.06,-0.02 m 0.1,0.04 c 0.22,0.11 0.44,0.22 0.65,0.34 v 0 c -0.21,-0.12 -0.43,-0.23 -0.65,-0.34 m 286.77,176.33 c 0,2.21 -0.77,4.66 -2.03,6.84 v 0 c 1.26,-2.18 2.03,-4.63 2.03,-6.84"
         style="fill:#d2d4d1;fill-opacity:1;fill-rule:nonzero;stroke:none"
         id="path98" />
      <path
         d="m 3781.42,2681.18 v 16.45 l 291.03,168.03 c 1.26,-2.18 2.03,-4.63 2.03,-6.84 v 0 -2.77 c 0,-4.43 -3.1,-9.81 -6.94,-12.03 v 0 l -139.59,-80.59 -139.59,-80.6 c -0.21,-0.12 -0.43,-0.23 -0.65,-0.34 -0.01,0 -0.03,-0.01 -0.04,-0.02 -0.02,-0.01 -0.04,-0.02 -0.06,-0.02 -0.5,-0.24 -1.03,-0.44 -1.58,-0.61 -1.44,-0.44 -3.03,-0.66 -4.61,-0.66"
         style="fill:#19b19d;fill-opacity:1;fill-rule:nonzero;stroke:none"
         id="path100" />
      <path
         d="m 3781.42,2681.17 c -2.51,0 -5.03,0.56 -6.95,1.66 l -86.86,50.16 86.86,-50.16 c 1.92,-1.1 4.43,-1.65 6.95,-1.65 v 0 -0.01 0"
         style="fill:#e0e1de;fill-opacity:1;fill-rule:nonzero;stroke:none"
         id="path102" />
      <path
         d="m 3651.92,2768.9 c 0.33,0.94 0.76,1.87 1.27,2.76 v 0 c -0.51,-0.89 -0.94,-1.82 -1.27,-2.76"
         style="fill:#e0e1de;fill-opacity:1;fill-rule:nonzero;stroke:none"
         id="path104" />
      <path
         d="m 3781.42,2681.18 c -2.52,0 -5.03,0.55 -6.95,1.65 l -86.86,50.16 -29.5,17.03 v 0 c -3.77,2.18 -6.85,7.43 -6.95,11.82 0,0.07 0,0.14 0,0.21 v 2.77 c 0,1.31 0.28,2.7 0.76,4.08 0.33,0.94 0.76,1.87 1.28,2.76 l 128.22,-74.03 v -16.45 0"
         style="fill:#1db3a0;fill-opacity:1;fill-rule:nonzero;stroke:none"
         id="path106" />
      <path
         d="m 3724.01,2918.77 -193.38,111.63 c -3.82,2.21 -6.94,7.6 -6.94,12.02 v 2.77 c 0,4.43 3.12,9.81 6.94,12.02 l 279.19,161.2 c 3.83,2.21 10.05,2.21 13.89,0 l 193.38,-111.63 c 3.83,-2.22 6.94,-7.6 6.94,-12.03 v -2.77 c 0,-4.42 -3.11,-9.8 -6.94,-12.02 L 3737.9,2918.77 c -3.83,-2.21 -10.05,-2.21 -13.89,0"
         style="fill:#26b6a6;fill-opacity:1;fill-rule:nonzero;stroke:none"
         id="path108" />
      <path
         d="m 3730.96,2917.11 v 0 0 c 2.51,0 5.03,0.56 6.94,1.66 v 0 c -1.91,-1.11 -4.43,-1.66 -6.94,-1.66"
         style="fill:#1f3239;fill-opacity:1;fill-rule:nonzero;stroke:none"
         id="path110" />
      <path
         d="m 3730.96,2917.11 v 0 16.46 l 291.03,168.02 c 1.26,-2.17 2.04,-4.62 2.04,-6.84 v -2.77 c 0,-4.42 -3.11,-9.8 -6.94,-12.02 v 0 l -139.6,-80.59 -139.59,-80.6 c -1.91,-1.1 -4.43,-1.66 -6.94,-1.66"
         style="fill:#19b19d;fill-opacity:1;fill-rule:nonzero;stroke:none"
         id="path112" />
      <path
         d="m 3730.96,2917.11 c -2.33,0 -4.65,0.48 -6.51,1.43 1.85,-0.95 4.18,-1.43 6.51,-1.43 v 0 0"
         style="fill:#21363e;fill-opacity:1;fill-rule:nonzero;stroke:none"
         id="path114" />
      <path
         d="m 3730.96,2917.11 c -2.33,0 -4.66,0.48 -6.51,1.43 -0.15,0.07 -0.3,0.15 -0.44,0.23 v 0 l -193.38,111.63 v 0 c -3.76,2.18 -6.84,7.43 -6.94,11.82 0,0.07 0,0.13 0,0.2 v 2.77 c 0,2.21 0.78,4.67 2.04,6.84 l 205.23,-118.46 v -16.46"
         style="fill:#1db3a0;fill-opacity:1;fill-rule:nonzero;stroke:none"
         id="path116" />
      <path
         d="m 3645.09,3175.72 -356.9,-971.04 -0.08,-0.31 -0.8,-2.17 c -1.04,-2 -2.96,-3.93 -5.77,-5.61 -8.97,-5.13 -23.56,-5.13 -32.62,0 -3.93,2.32 -6.1,5.13 -6.65,8.02 v 2.64 c 0.07,2.33 0.55,4.49 1.35,6.74 l 358.19,977.61 c 4.32,11.94 17.55,18.04 29.58,13.71 11.94,-4.41 18.03,-17.64 13.7,-29.59"
         style="fill:#273e47;fill-opacity:1;fill-rule:nonzero;stroke:none"
         id="path118" />
      <path
         d="m 3637.08,3352.97 c -10.59,-6.17 -17.88,-22.52 -15.31,-34.47 l 317.2,-1483.62 c 0.33,-1.2 0.49,-2.4 0.49,-3.6 v -2.57 c -0.49,-2.88 -2.73,-5.77 -6.66,-8.09 -8.97,-5.22 -23.56,-5.22 -32.55,0 -3.28,1.92 -5.37,4.25 -6.32,6.65 l -0.08,0.24 -0.4,1.93 -316.74,1479.36 c -6.65,31.18 9.7,68.14 37.36,84.09"
         style="fill:#33535f;fill-opacity:1;fill-rule:nonzero;stroke:none"
         id="path120" />
      <path
         d="m 3436.4,4521.2 c 0,14.73 -5.18,25.08 -13.55,29.89 -7.77,4.47 -35.67,20.81 -43.51,25.31 -8.35,4.78 -19.87,4.08 -32.59,-3.27 L 879.129,3148.14 c -25.543,-14.75 -46.254,-50.62 -46.254,-80.12 L 832.883,870 c 0,-14.762 5.191,-25.121 13.59,-29.922 7.765,-4.449 35.55,-20.629 43.285,-25.168 8.363,-4.91 19.949,-4.25 32.765,3.149 L 3390.15,2243.06 c 25.54,14.75 46.26,50.62 46.26,80.12 l -0.01,2198.02"
         style="fill:#dadbd8;fill-opacity:1;fill-rule:nonzero;stroke:none"
         id="path122" />
      <path
         d="m 3422.84,4551.13 c -8.33,4.91 -19.86,4.16 -32.68,-3.21 L 922.523,3122.89 c -12.82,-7.37 -24.355,-20.08 -32.691,-34.5 l -43.473,25.1 c 8.438,14.53 19.973,27.24 32.789,34.61 L 3346.79,4573.14 c 12.71,7.36 24.25,8.01 32.57,3.31 7.81,-4.6 35.69,-20.83 43.48,-25.32"
         style="fill:#26b6a6;fill-opacity:1;fill-rule:nonzero;stroke:none"
         id="path124" />
      <path
         d="m 889.82,3088.39 -43.461,25.1 c 8.438,14.53 19.973,27.24 32.789,34.61 L 3346.79,4573.14 c 7.41,4.29 14.41,6.3 20.62,6.3 4.44,0 8.48,-1.03 11.95,-2.99 7.62,-4.49 34.35,-20.05 42.88,-24.97 -0.15,0.07 -0.3,0.15 -0.45,0.23 -0.04,0.02 -0.08,0.04 -0.13,0.07 -3.21,1.63 -6.86,2.47 -10.84,2.47 -6.2,0 -13.21,-2.04 -20.66,-6.33 L 2129.96,3820.18 922.52,3122.9 c -12.77,-7.37 -24.329,-20.02 -32.7,-34.51"
         style="fill:#a1dfd6;fill-opacity:1;fill-rule:nonzero;stroke:none"
         id="path126" />
      <path
         d="m 922.52,3122.9 2467.62,1425 c 25.54,14.75 46.26,2.79 46.26,-26.7 l 0.01,-2198.02 c 0,-29.5 -20.72,-65.37 -46.26,-80.12 L 922.523,818.059 C 896.98,803.32 876.27,815.27 876.27,844.77 l -0.004,2198.02 c 0,29.49 20.707,65.36 46.254,80.11"
         style="fill:#ededeb;fill-opacity:1;fill-rule:nonzero;stroke:none"
         id="path128" />
      <path
         d="m 889.832,3088.39 c -8.328,-14.53 -13.562,-30.87 -13.562,-45.61 v -147 l -43.375,25.11 v 147.09 c 0,14.75 5.128,31.09 13.464,45.51 l 43.473,-25.1"
         style="fill:#26b6a6;fill-opacity:1;fill-rule:nonzero;stroke:none"
         id="path130" />
      <path
         d="m 876.27,2895.78 -43.375,25.11 v 147.09 c 0,14.75 5.128,31.09 13.464,45.51 l 43.473,-25.1 c -8.328,-14.53 -13.562,-30.87 -13.562,-45.61 v -147"
         style="fill:#1db3a0;fill-opacity:1;fill-rule:nonzero;stroke:none"
         id="path132" />
      <path
         d="m 3436.4,4521.2 c 0,29.49 -20.72,41.45 -46.26,26.7 L 922.52,3122.9 c -25.547,-14.75 -46.254,-50.62 -46.254,-80.11 V 2895.75 L 3436.4,4374.16 v 147.04"
         style="fill:#26b6a6;fill-opacity:1;fill-rule:nonzero;stroke:none"
         id="path134" />
      <path
         d="M 963.027,2845.73 V 1442.79 l 954.653,551.16 v 1050.8 l -607.5,1.41 -347.153,-200.43"
         style="fill:#26b6a6;fill-opacity:1;fill-rule:nonzero;stroke:none"
         id="path136" />
      <path
         d="m 1535.27,2657.84 h -7.5 c 0.01,-15.94 3.95,-29.29 11.64,-38.96 7.65,-9.69 19.22,-15.09 31.89,-15.01 10.39,0.01 21.49,3.36 32.82,9.9 19.47,11.28 36.42,29.99 48.77,51.33 12.3,21.36 20.03,45.39 20.06,67.9 0,15.93 -3.94,29.29 -11.64,38.96 -7.64,9.69 -19.21,15.09 -31.88,15.01 -10.4,-0.01 -21.5,-3.36 -32.82,-9.9 -19.47,-11.28 -36.42,-29.99 -48.77,-51.32 -12.3,-21.36 -20.03,-45.39 -20.07,-67.9 v -0.01 l 0.01,-0.28 7.49,0.28 h -7.5 7.5 l 7.5,0.28 -7.34,-0.28 h 7.34 v 0.28 l -7.34,-0.28 h 7.34 v 0.01 c -0.03,19 6.81,40.96 18.06,60.4 11.21,19.46 26.81,36.36 43.28,45.83 9.57,5.54 18.22,7.9 25.32,7.89 8.69,-0.08 15.13,-3.19 20.16,-9.37 4.98,-6.21 8.37,-16.09 8.36,-29.6 0.04,-19 -6.8,-40.96 -18.06,-60.4 -11.2,-19.47 -26.8,-36.37 -43.27,-45.84 -9.58,-5.54 -18.22,-7.9 -25.32,-7.89 -8.69,0.08 -15.13,3.19 -20.16,9.37 -4.98,6.21 -8.37,16.09 -8.37,29.6 v 0.28 l -7.5,-0.28"
         style="fill:#fafaf9;fill-opacity:1;fill-rule:nonzero;stroke:none"
         id="path138" />
      <path
         d="m 1049.83,2795.64 h -7.5 V 1593.1 c 0,-2.68 1.43,-5.15 3.75,-6.49 2.32,-1.34 5.18,-1.34 7.5,0 l 781.06,450.94 c 2.32,1.35 3.75,3.82 3.75,6.5 v 952 c 0,3.96 -3.06,7.23 -7.02,7.48 l -390.54,25.07 c -1.46,0.09 -2.96,-0.26 -4.23,-0.99 l -390.52,-225.48 c -2.32,-1.34 -3.75,-3.81 -3.75,-6.49 h 7.5 l 3.75,-6.5 388.56,224.34 381.25,-24.47 v -940.63 l -766.06,-442.29 v 1189.55 h -7.5 l 3.75,-6.5 -3.75,6.5"
         style="fill:#fafaf9;fill-opacity:1;fill-rule:nonzero;stroke:none"
         id="path140" />
      <path
         d="m 1506.09,2299.56 152.9,210.04 167.5,-120.89 c 3.36,-2.43 8.05,-1.67 10.48,1.69 2.42,3.36 1.66,8.04 -1.7,10.47 l -173.56,125.26 c -3.34,2.41 -8.03,1.67 -10.45,-1.66 l -157.3,-216.08 c -2.44,-3.35 -1.7,-8.04 1.65,-10.48 3.35,-2.43 8.04,-1.7 10.48,1.65 v 0"
         style="fill:#fafaf9;fill-opacity:1;fill-rule:nonzero;stroke:none"
         id="path142" />
      <path
         d="m 1056.47,1940.39 256.31,493.24 296.69,-220.24 c 3.32,-2.46 8.02,-1.77 10.49,1.56 2.47,3.32 1.77,8.02 -1.55,10.49 l -303.75,225.48 c -1.77,1.31 -4.02,1.78 -6.16,1.28 -2.14,-0.49 -3.96,-1.9 -4.97,-3.85 l -260.37,-501.04 c -1.91,-3.68 -0.47,-8.21 3.2,-10.12 3.68,-1.91 8.2,-0.47 10.11,3.2"
         style="fill:#fafaf9;fill-opacity:1;fill-rule:nonzero;stroke:none"
         id="path144" />
      <path
         d="m 1547.29,2820.69 c 0,0 -1.64,30.87 -41.42,100.21 -18.25,31.79 -53.08,58.16 -88.36,78.36 l 15.91,9.19 c 62,-29.63 131.96,-81.67 170.35,-172.12 -34.26,-10.95 -56.48,-15.64 -56.48,-15.64 m -145.17,187.01 c -47.73,25.03 -91.94,38.46 -91.94,38.46 0,0 47.69,-5.09 106.41,-30.11 l -14.47,-8.35"
         style="fill:#1db3a0;fill-opacity:1;fill-rule:nonzero;stroke:none"
         id="path146" />
      <path
         d="m 1417.51,2999.26 c -5.14,2.94 -10.29,5.76 -15.39,8.44 l 14.47,8.35 c 5.52,-2.35 11.14,-4.88 16.83,-7.6 l -15.91,-9.19"
         style="fill:#dbdcd9;fill-opacity:1;fill-rule:nonzero;stroke:none"
         id="path148" />
      <path
         d="m 1310.18,3046.16 c 0,0 234.62,-25.05 303.75,-236.99 130.17,44.08 234.96,118.49 303.75,235.58 l -607.5,1.41"
         style="fill:#26b6a6;fill-opacity:1;fill-rule:nonzero;stroke:none"
         id="path150" />
      <path
         d="m 1613.93,2809.17 c -35.03,107.39 -112.55,166.8 -180.51,199.28 -5.69,2.72 -11.31,5.25 -16.83,7.6 -58.72,25.02 -106.41,30.11 -106.41,30.11 l 607.5,-1.41 c -22.65,-38.56 -49.21,-72.48 -79.29,-102.22 -4.9,-4.86 -9.9,-9.6 -15,-14.23 -58.5,-53.19 -129.15,-91.93 -209.46,-119.13"
         style="fill:#a1dfd6;fill-opacity:1;fill-rule:nonzero;stroke:none"
         id="path152" />
      <path
         d="m 2899.71,3041.73 c -7.34,-5.51 -19.26,-24.23 -32.34,-57.68 15.37,6.71 28.09,19.38 35.63,32.71 2.2,3.94 9.04,17.2 4.25,23.91 -2.76,3.88 -5.32,2.76 -7.54,1.06"
         style="fill:#26b6a6;fill-opacity:1;fill-rule:nonzero;stroke:none"
         id="path154" />
      <path
         d="m 2773.47,3077.86 c -5.53,-2.81 -7.49,-6.74 -8.73,-11.79 -2.86,-11.59 -1.12,-27.08 5.86,-41.89 8.99,22.93 12.52,41.1 10.79,50.35 -0.76,4.03 -2.4,6.15 -7.92,3.33"
         style="fill:#26b6a6;fill-opacity:1;fill-rule:nonzero;stroke:none"
         id="path156" />
      <path
         d="m 2636.2,2907.84 -1.55,-0.58 c -1.86,-0.93 -3.95,-3.05 -6.54,-8.43 -5.8,-12.09 -0.03,-18.96 1.86,-20.81 6.48,-6.21 18.43,-6.37 34.01,2.68 -10.11,21.67 -20.65,28.97 -27.78,27.14"
         style="fill:#26b6a6;fill-opacity:1;fill-rule:nonzero;stroke:none"
         id="path158" />
      <path
         d="m 2917.93,3005.73 c -13.48,-23.9 -35.62,-45.25 -61.92,-53.89 -6.68,-20.84 -13.4,-45.44 -19.75,-73.95 -29.84,-134.36 -34.12,-239.91 -34.15,-240.94 -0.29,-7.72 -5.41,-16.58 -11.44,-19.8 l -0.22,-0.12 c -5.91,-3 -10.43,0.64 -10.15,8.25 0.17,4.45 4.46,110.32 35.19,248.58 5.96,26.81 12.53,51.66 19.51,74.08 -8.71,-0.42 -17.72,0.62 -26.91,3.45 -16.38,4.99 -29.74,13.78 -40.06,24.69 -12.11,-22.31 -27.19,-45.55 -45.04,-67.94 -9.99,-12.57 -19.63,-23.08 -28.79,-31.75 4.91,-16.37 9.12,-35.74 12.46,-57.83 17.24,-113.88 10.12,-221.2 9.8,-225.72 -0.53,-7.85 -5.53,-15.71 -11.84,-19.42 -6,-2.89 -10.43,1.12 -9.89,8.96 0.07,1.06 7.13,108.22 -9.56,218.74 -3.57,23.47 -7.95,42.42 -12.71,57.45 -26.86,-18.42 -47.86,-18.94 -59.47,-7.8 -11.6,11.12 -12.24,33.52 -1.56,55.74 8.09,16.85 19.12,28.2 30.47,31.11 16.94,4.32 32.43,-9.98 44.79,-39.87 8.16,7.52 16.91,16.93 26.12,28.5 17.86,22.45 32.18,45.06 43.05,65.85 -13.27,22.02 -17.21,48.49 -11.65,71.06 4.79,19.47 16.3,35.51 30.76,42.87 14.47,7.35 24.85,2.43 27.77,-13.13 3.38,-18.02 -3.68,-50.08 -20.11,-87.19 9.19,-10.61 21.81,-19.53 38.2,-24.58 8.46,-2.57 16.66,-3.38 24.45,-2.79 16.34,44.44 34.29,75.77 51.68,88.89 11.6,8.6 22.07,8.33 28.76,-1.01 8.82,-12.32 5.7,-36.62 -7.79,-60.49 z m -128.57,369.14 c -145.68,-74.02 -271.94,-286.77 -282.02,-475.18 -14.49,-270.82 155.87,-227.99 150.03,-337.15 -0.92,-17.39 7.02,-30.27 24.08,-34.51 34.13,-8.47 91.74,20.8 128.7,65.39 18.47,22.3 28.29,44.21 29.21,61.6 5.84,109.16 181.02,241.91 195.5,512.74 10.09,188.41 -99.83,281.13 -245.5,207.11"
         style="fill:#26b6a6;fill-opacity:1;fill-rule:nonzero;stroke:none"
         id="path160" />
      <path
         d="m 2792.76,3438.54 c -9.88,-5.02 -17.34,1.26 -16.66,14.05 l 7.14,133.37 c 0.69,12.8 9.25,27.23 19.14,32.25 9.88,5.02 17.35,-1.26 16.66,-14.06 l -7.14,-133.37 c -0.68,-12.79 -9.25,-27.22 -19.14,-32.24"
         style="fill:#26b6a6;fill-opacity:1;fill-rule:nonzero;stroke:none"
         id="path162" />
      <path
         d="m 2627.03,3299.46 c -8.91,-10.74 -19.65,-12.51 -23.99,-3.95 l -45.38,89.31 c -4.36,8.56 -0.66,24.21 8.24,34.95 8.9,10.73 19.65,12.51 23.99,3.95 l 45.38,-89.3 c 4.36,-8.57 0.66,-24.21 -8.24,-34.96"
         style="fill:#26b6a6;fill-opacity:1;fill-rule:nonzero;stroke:none"
         id="path164" />
      <path
         d="m 2499.67,3084.87 c -5.54,-13.58 -16.68,-22.94 -24.9,-20.89 l -85.74,21.3 c -8.22,2.04 -10.39,14.71 -4.85,28.29 5.53,13.58 16.67,22.95 24.9,20.9 l 85.72,-21.31 c 8.24,-2.04 10.4,-14.71 4.87,-28.29"
         style="fill:#26b6a6;fill-opacity:1;fill-rule:nonzero;stroke:none"
         id="path166" />
      <path
         d="m 2444.8,2852.26 c -0.68,-12.79 -9.23,-27.22 -19.13,-32.24 l -103.11,-52.41 c -9.89,-5.03 -17.35,1.28 -16.66,14.06 0.68,12.79 9.24,27.22 19.13,32.25 l 103.12,52.39 c 9.89,5.03 17.34,-1.26 16.65,-14.05"
         style="fill:#26b6a6;fill-opacity:1;fill-rule:nonzero;stroke:none"
         id="path168" />
      <path
         d="m 2477.15,2663.96 c 4.34,-8.56 0.66,-24.2 -8.24,-34.95 l -92.87,-112.06 c -8.91,-10.75 -19.65,-12.51 -24,-3.95 -4.34,8.55 -0.67,24.19 8.24,34.95 l 92.87,112.06 c 8.91,10.75 19.65,12.51 24,3.95"
         style="fill:#26b6a6;fill-opacity:1;fill-rule:nonzero;stroke:none"
         id="path170" />
      <path
         d="m 3040.82,2950.39 c 5.54,13.58 16.68,22.94 24.9,20.9 l 85.73,-21.31 c 8.23,-2.04 10.4,-14.71 4.86,-28.29 -5.53,-13.59 -16.68,-22.95 -24.89,-20.9 l -85.75,21.3 c -8.22,2.05 -10.39,14.71 -4.85,28.3"
         style="fill:#26b6a6;fill-opacity:1;fill-rule:nonzero;stroke:none"
         id="path172" />
      <path
         d="m 3095.68,3183 c 0.69,12.78 9.24,27.22 19.13,32.25 l 103.12,52.39 c 9.89,5.03 17.34,-1.27 16.66,-14.05 -0.68,-12.79 -9.24,-27.22 -19.13,-32.25 l -103.13,-52.39 c -9.89,-5.03 -17.34,1.26 -16.65,14.05"
         style="fill:#26b6a6;fill-opacity:1;fill-rule:nonzero;stroke:none"
         id="path174" />
      <path
         d="m 3063.34,3371.3 c -4.36,8.56 -0.66,24.2 8.24,34.95 l 92.87,112.06 c 8.91,10.75 19.64,12.51 24,3.95 4.34,-8.56 0.66,-24.2 -8.25,-34.95 l -92.87,-112.06 c -8.9,-10.75 -19.63,-12.51 -23.99,-3.95"
         style="fill:#26b6a6;fill-opacity:1;fill-rule:nonzero;stroke:none"
         id="path176" />
      <path
         d="m 2952.47,3464.84 c -8.22,2.04 -10.4,14.69 -4.86,28.29 l 57.73,141.69 c 5.54,13.61 16.69,22.95 24.9,20.91 8.23,-2.05 10.4,-14.7 4.87,-28.3 l -57.74,-141.7 c -5.54,-13.59 -16.69,-22.94 -24.9,-20.89"
         style="fill:#26b6a6;fill-opacity:1;fill-rule:nonzero;stroke:none"
         id="path178" />
      <path
         d="m 2792.76,3438.54 c -9.88,-5.02 -17.34,1.26 -16.66,14.05 l 7.14,133.37 c 0.69,12.8 9.25,27.23 19.14,32.25 9.88,5.02 17.35,-1.26 16.66,-14.06 l -7.14,-133.37 c -0.68,-12.79 -9.25,-27.22 -19.14,-32.24"
         style="fill:#33535f;fill-opacity:1;fill-rule:nonzero;stroke:none"
         id="path180" />
      <path
         d="m 2627.03,3299.46 c -8.91,-10.74 -19.65,-12.51 -23.99,-3.95 l -45.38,89.31 c -4.36,8.56 -0.66,24.21 8.24,34.95 8.9,10.73 19.65,12.51 23.99,3.95 l 45.38,-89.3 c 4.36,-8.57 0.66,-24.21 -8.24,-34.96"
         style="fill:#33535f;fill-opacity:1;fill-rule:nonzero;stroke:none"
         id="path182" />
      <path
         d="m 2499.67,3084.87 c -5.54,-13.58 -16.68,-22.94 -24.9,-20.89 l -85.74,21.3 c -8.22,2.04 -10.39,14.71 -4.85,28.29 5.53,13.58 16.67,22.95 24.9,20.9 l 85.72,-21.31 c 8.24,-2.04 10.4,-14.71 4.87,-28.29"
         style="fill:#33535f;fill-opacity:1;fill-rule:nonzero;stroke:none"
         id="path184" />
      <path
         d="m 2444.8,2852.26 c -0.68,-12.79 -9.23,-27.22 -19.13,-32.24 l -103.11,-52.41 c -9.89,-5.03 -17.35,1.28 -16.66,14.06 0.68,12.79 9.24,27.22 19.13,32.25 l 103.12,52.39 c 9.89,5.03 17.34,-1.26 16.65,-14.05"
         style="fill:#33535f;fill-opacity:1;fill-rule:nonzero;stroke:none"
         id="path186" />
      <path
         d="m 2477.15,2663.96 c 4.34,-8.56 0.66,-24.2 -8.24,-34.95 l -92.87,-112.06 c -8.91,-10.75 -19.65,-12.51 -24,-3.95 -4.34,8.55 -0.67,24.19 8.24,34.95 l 92.87,112.06 c 8.91,10.75 19.65,12.51 24,3.95"
         style="fill:#33535f;fill-opacity:1;fill-rule:nonzero;stroke:none"
         id="path188" />
      <path
         d="m 3040.82,2950.39 c 5.54,13.58 16.68,22.94 24.9,20.9 l 85.73,-21.31 c 8.23,-2.04 10.4,-14.71 4.86,-28.29 -5.53,-13.59 -16.68,-22.95 -24.89,-20.9 l -85.75,21.3 c -8.22,2.05 -10.39,14.71 -4.85,28.3"
         style="fill:#33535f;fill-opacity:1;fill-rule:nonzero;stroke:none"
         id="path190" />
      <path
         d="m 3095.68,3183 c 0.69,12.78 9.24,27.22 19.13,32.25 l 103.12,52.39 c 9.89,5.03 17.34,-1.27 16.66,-14.05 -0.68,-12.79 -9.24,-27.22 -19.13,-32.25 l -103.13,-52.39 c -9.89,-5.03 -17.34,1.26 -16.65,14.05"
         style="fill:#33535f;fill-opacity:1;fill-rule:nonzero;stroke:none"
         id="path192" />
      <path
         d="m 3063.34,3371.3 c -4.36,8.56 -0.66,24.2 8.24,34.95 l 92.87,112.06 c 8.91,10.75 19.64,12.51 24,3.95 4.34,-8.56 0.66,-24.2 -8.25,-34.95 l -92.87,-112.06 c -8.9,-10.75 -19.63,-12.51 -23.99,-3.95"
         style="fill:#33535f;fill-opacity:1;fill-rule:nonzero;stroke:none"
         id="path194" />
      <path
         d="m 2952.47,3464.84 c -8.22,2.04 -10.4,14.69 -4.86,28.29 l 57.73,141.69 c 5.54,13.61 16.69,22.95 24.9,20.91 8.23,-2.05 10.4,-14.7 4.87,-28.3 l -57.74,-141.7 c -5.54,-13.59 -16.69,-22.94 -24.9,-20.89"
         style="fill:#33535f;fill-opacity:1;fill-rule:nonzero;stroke:none"
         id="path196" />
      <path
         d="m 2840.32,2620.65 -4.64,-86.81 c -0.95,-17.83 -11.05,-40.52 -30.21,-63.54 -37.98,-45.88 -97.57,-76.17 -132.63,-67.4 -18.39,4.38 -26.33,18.82 -24.42,38.03 l 4.17,78.01 c 1.31,-14.66 9.61,-25.29 24.9,-29.23 35.05,-8.77 94.65,21.52 132.63,67.39 19.16,23.03 29.24,45.48 30.2,63.55"
         style="fill:#26b6a6;fill-opacity:1;fill-rule:nonzero;stroke:none"
         id="path198" />
      <path
         d="m 2685.99,2401.39 c -4.67,0 -9.07,0.49 -13.15,1.51 -16.59,3.95 -24.68,16.1 -24.7,32.54 0,1.78 0.09,3.61 0.28,5.49 l 4.17,78.01 c 1.31,-14.66 9.61,-25.29 24.9,-29.23 4.08,-1.02 8.48,-1.51 13.15,-1.51 35.47,0 85.91,28.37 119.48,68.9 19.16,23.03 29.24,45.48 30.2,63.55 l -4.64,-86.81 c -0.95,-17.83 -11.05,-40.52 -30.21,-63.54 -33.56,-40.54 -84.01,-68.91 -119.48,-68.91"
         style="fill:#06a088;fill-opacity:1;fill-rule:nonzero;stroke:none"
         id="path200" />
      <path
         d="m 4254.05,1561.01 -255.33,3.47 -2.23,-208.52 h 0.02 c -0.21,-18.87 12.05,-37.89 36.83,-52.55 49.54,-29.33 130.38,-30.2 180.57,-1.95 25.32,14.25 37.95,33.19 37.93,52.23 l 2.21,207.32"
         style="fill:#273e47;fill-opacity:1;fill-rule:nonzero;stroke:none"
         id="path202" />
      <path
         d="m 4036.72,1616.16 c -50.17,-28.26 -50.67,-74.94 -1.12,-104.26 49.53,-29.33 130.38,-30.2 180.56,-1.96 50.18,28.26 50.69,74.94 1.12,104.27 -49.56,29.33 -130.41,30.2 -180.56,1.95"
         style="fill:#33535f;fill-opacity:1;fill-rule:nonzero;stroke:none"
         id="path204" />
      <path
         d="m 4243.08,1561.84 c 0,-3.33 -0.7,-6.67 -1.8,-10 -3.9,-11.95 -14.32,-23.06 -30.57,-32.23 -22.64,-12.64 -52.79,-19.45 -85.02,-19.17 -32.09,0.42 -62.1,7.78 -84.46,20.97 -15.7,9.31 -25.99,20.56 -29.59,32.23 -1.25,3.48 -1.81,7.09 -1.81,10.7 0.28,15.56 11.67,30.56 32.37,42.1 22.51,12.78 52.79,19.58 84.88,19.17 32.23,-0.28 62.24,-7.79 84.6,-20.98 20.43,-12.09 31.54,-27.23 31.4,-42.79"
         style="fill:#17282f;fill-opacity:1;fill-rule:nonzero;stroke:none"
         id="path206" />
      <path
         d="m 4241.28,1551.84 c -3.9,-11.95 -14.32,-23.06 -30.57,-32.23 -22.64,-12.64 -52.79,-19.45 -85.02,-19.17 -32.09,0.42 -62.1,7.78 -84.46,20.97 -15.7,9.31 -25.99,20.56 -29.59,32.23 3.89,11.95 14.31,23.07 30.56,32.09 22.51,12.79 52.79,19.59 84.88,19.32 32.23,-0.42 62.24,-7.92 84.6,-21.12 15.7,-9.31 25.84,-20.42 29.6,-32.09"
         style="fill:#26b6a6;fill-opacity:1;fill-rule:nonzero;stroke:none"
         id="path208" />
      <path
         d="m 4180.82,1482.88 c 5.6,3.16 10.08,0.51 10,-5.92 -0.07,-6.43 -4.66,-14.19 -10.26,-17.35 -5.61,-3.15 -10.08,-0.5 -10.01,5.92 0.07,6.43 4.67,14.2 10.27,17.35"
         style="fill:#17282f;fill-opacity:1;fill-rule:nonzero;stroke:none"
         id="path210" />
      <path
         d="m 3998.3,1527.8 c -14.03,-27.64 -41.95,-93.49 -5.69,-120.3 1.52,-1.11 2.91,-2.08 4.44,-3.06 l -0.14,-13.33 c -3.61,2.22 -7.36,4.72 -10.97,7.36 -54.18,40.15 6.94,143.23 9.58,147.53 0.7,1.25 1.8,1.95 3.05,2.37 l -0.27,-20.57"
         style="fill:#dadbd8;fill-opacity:1;fill-rule:nonzero;stroke:none"
         id="path212" />
      <path
         d="m 4185.57,1468.63 c -1.53,-3.2 -40.99,-78.63 -105.86,-93.78 -7.5,-1.81 -14.87,-2.64 -22.37,-2.64 -20.14,0 -40.29,6.25 -60.43,18.9 l 0.14,13.33 c 26.81,-18.61 53.76,-25 80.16,-18.89 59.87,14.03 98.22,87.52 98.49,88.21 1.39,2.79 4.87,3.76 7.5,2.37 2.79,-1.39 3.89,-4.73 2.37,-7.5"
         style="fill:#dadbd8;fill-opacity:1;fill-rule:nonzero;stroke:none"
         id="path214" />
      <path
         d="m 4145.66,951.012 c 0,5.429 -3.58,10.859 -10.76,15 l -394.86,227.978 c -14.35,8.28 -37.61,8.28 -51.96,0 L 3090.12,848.75 c -7.18,-4.141 -10.76,-9.57 -10.76,-15 0,-5.43 0,-41.469 0,-46.898 0,-5.43 3.58,-10.864 10.76,-15 l 394.86,-227.981 c 14.35,-8.281 37.62,-8.281 51.96,0 l 597.96,345.238 c 7.18,4.141 10.76,9.571 10.76,14.993 0,5.429 0,41.48 0,46.91"
         style="fill:#ededeb;fill-opacity:1;fill-rule:nonzero;stroke:none"
         id="path216" />
      <path
         d="M 3511,584.582 V 537.68 c -9.41,0 -18.8,2.101 -26.01,6.199 l -394.9,228 c -7.2,4.101 -10.7,9.5 -10.7,15 v 46.902 c 0,-5.402 3.5,-10.902 10.7,-15 l 394.9,-228 c 7.21,-4.203 16.6,-6.199 26.01,-6.199"
         style="fill:#e2e2e0;fill-opacity:1;fill-rule:nonzero;stroke:none"
         id="path218" />
      <path
         d="m 3090.12,848.75 597.96,345.24 c 14.35,8.28 37.61,8.28 51.96,0 L 4134.9,966.012 c 14.36,-8.282 14.36,-21.723 0,-30 L 3536.94,590.781 c -14.35,-8.293 -37.61,-8.293 -51.96,0 L 3090.12,818.75 c -14.36,8.289 -14.36,21.719 0,30"
         style="fill:#ffffff;fill-opacity:1;fill-rule:nonzero;stroke:none"
         id="path220" />
      <path
         d="m 3740.04,1193.99 c -14.35,8.28 -37.61,8.28 -51.96,0 L 3090.12,848.75 c -14.35,-8.281 -14.35,-21.711 0,-30 l 141.42,-81.648 0.01,0.007 c 0,0 148.93,-35.839 212.26,5.672 63.33,41.5 36.82,142.66 117.61,170.117 37.06,12.614 82.96,11.942 132.57,11.282 58.51,-0.782 122.17,-1.559 182.55,19.422 111.58,38.769 113.57,106.008 113.57,106.008 l -250.07,144.38"
         style="fill:#26b6a6;fill-opacity:1;fill-rule:nonzero;stroke:none"
         id="path222" />
      <path
         d="m 3740.04,1193.99 c -14.35,8.28 -37.61,8.28 -51.96,0 L 3090.12,848.75 c -14.35,-8.281 -14.35,-21.711 0,-30 l 141.42,-81.648 0.01,0.007 c 0,0 148.93,-35.839 212.26,5.672 63.33,41.5 36.82,142.66 117.61,170.117 37.06,12.614 82.96,11.942 132.57,11.282 58.51,-0.782 122.17,-1.559 182.55,19.422 111.58,38.769 113.57,106.008 113.57,106.008 l -250.07,144.38"
         style="fill:#26b6a6;fill-opacity:1;fill-rule:nonzero;stroke:none"
         id="path224" />
      <path
         d="m 3079.39,833.781 v -46.902 c 0,-5.5 3.5,-10.899 10.7,-15 l 141.45,-81.668 v 46.891 l -0.01,0.007 -141.44,81.672 c -7.2,4.098 -10.7,9.598 -10.7,15"
         style="fill:#26b6a6;fill-opacity:1;fill-rule:nonzero;stroke:none"
         id="path226" />
      <path
         d="m 3231.54,690.211 -141.45,81.668 c -7.2,4.101 -10.7,9.5 -10.7,15 v 46.902 c 0,-5.402 3.5,-10.902 10.7,-15 l 141.44,-81.672 0.01,-0.007 v 0 -46.891"
         style="fill:#1db3a0;fill-opacity:1;fill-rule:nonzero;stroke:none"
         id="path228" />
      <path
         d="m 2772.04,1239.27 c -7.03,15.65 29.04,29.63 54.75,27 11.79,-1.21 27.08,-10.79 38.73,-11.35 9.03,-0.43 19.03,0.86 29.21,2.14 9.73,1.22 19.63,2.45 29.01,2.18 28.15,-0.81 32.06,-20.98 27.1,-36.44 -4.97,-15.46 -40.02,-28.56 -40.02,-28.56 l -69.05,17.19 c -33.79,3.44 -59.21,11.52 -69.73,27.84"
         style="fill:#33535f;fill-opacity:1;fill-rule:nonzero;stroke:none"
         id="path230" />
      <path
         d="m 2931.3,1230.68 c -9.1,-0.11 -3.54,-32.77 -14.42,-40.37 -5.71,-3.99 -41.47,21.9 -61.07,27.8 -19.6,5.9 -66.39,-1.62 -83.77,21.16 0,0 1.24,-5.88 11.51,-15.93 6.29,-6.14 48.4,-35.72 75.87,-49.13 27.46,-13.43 90.16,-36.5 90.16,-36.5 l -18.28,92.97"
         style="fill:#17282f;fill-opacity:1;fill-rule:nonzero;stroke:none"
         id="path232" />
      <path
         d="m 3240.68,1083.17 c 2.38,-58.65 -93.68,-70.12 -178.02,-29.88 -63.65,30.35 -92.16,52.24 -149.99,95.48 -71.79,53.68 -95.13,155.67 -42.08,231.55 l 244.12,12.55 c 42.49,-49.13 195.42,-114.55 246.48,-231.02 24.65,-61.56 -60.05,-93.95 -120.51,-78.68"
         style="fill:#26b6a6;fill-opacity:1;fill-rule:nonzero;stroke:none"
         id="path234" />
      <path
         d="m 3161.51,1029.53 c -30.23,0 -65.45,7.83 -98.85,23.76 -63.65,30.35 -92.16,52.24 -149.99,95.48 -2.63,1.97 -5.2,3.97 -7.69,6.01 0.05,-0.02 0.11,-0.04 0.17,-0.06 2.44,-2.04 4.95,-4.03 7.52,-5.95 57.83,-43.24 86.34,-65.13 149.99,-95.48 33.4,-15.93 68.62,-23.76 98.85,-23.76 45.22,0.01 79.26,17.51 79.22,51.59 0.04,-34.08 -34,-51.58 -79.22,-51.59 m -317.6,231.71 c -0.16,0.06 -0.31,0.12 -0.46,0.18 -0.3,2.66 -0.53,5.35 -0.7,8.06 0.32,-2.75 0.7,-5.5 1.16,-8.24"
         style="fill:#969898;fill-opacity:1;fill-rule:nonzero;stroke:none"
         id="path236" />
      <path
         d="m 2857.2,1217.67 c -0.47,0.16 -0.94,0.31 -1.39,0.44 -0.23,0.07 -0.47,0.14 -0.71,0.21 -6,13.58 -9.93,27.97 -11.65,43.1 0.15,-0.06 0.3,-0.12 0.46,-0.18 2.47,-14.97 6.95,-29.64 13.29,-43.57"
         style="fill:#1d3037;fill-opacity:1;fill-rule:nonzero;stroke:none"
         id="path238" />
      <path
         d="m 2905.15,1154.72 c -0.06,0.02 -0.12,0.04 -0.17,0.06 -22.46,18.37 -39.35,39.7 -49.88,63.54 0.24,-0.07 0.48,-0.14 0.71,-0.21 0.45,-0.13 0.92,-0.28 1.39,-0.44 10.83,-23.83 27.08,-45.52 47.95,-62.95"
         style="fill:#0d171a;fill-opacity:1;fill-rule:nonzero;stroke:none"
         id="path240" />
      <path
         d="m 3161.51,1029.53 c -30.23,0 -65.45,7.83 -98.85,23.76 -63.65,30.35 -92.16,52.24 -149.99,95.48 -2.57,1.92 -5.08,3.91 -7.52,5.95 -20.87,17.43 -37.12,39.12 -47.95,62.95 -6.34,13.93 -10.82,28.6 -13.29,43.57 -0.46,2.74 -0.84,5.49 -1.16,8.24 -2.04,33.77 6.71,71.01 27.84,110.84 v 0 0 0 0 0 c 44.56,-24.88 93.43,-35.01 136.61,-35.01 54.04,-0.01 99.18,15.86 115.95,38.58 0.01,0.08 0.03,0.16 0.04,0.25 51.43,-48.17 189.9,-112.59 238,-222.29 2.99,-7.47 4.37,-14.52 4.38,-21.1 0.05,-38.65 -47.26,-61.33 -93.48,-61.33 -10.73,0 -21.4,1.22 -31.41,3.75 0,0 7.37,29.44 -12.06,60.91 -31.4,50.87 -136.36,110.92 -136.36,110.92 22.93,15.16 24.33,37.41 24.33,37.41 -23.16,-23.81 -47.71,-27.75 -61.42,-27.75 -6.77,0 -10.89,0.96 -10.89,0.96 0,0 75.82,-46.44 111.91,-73.18 36.09,-26.74 78.08,-54.01 84.49,-109.27 v 0 c 0.03,-0.69 0.05,-1.38 0.05,-2.05 0.04,-34.08 -34,-51.58 -79.22,-51.59"
         style="fill:#06a088;fill-opacity:1;fill-rule:nonzero;stroke:none"
         id="path242" />
      <path
         d="m 3240.68,1083.17 c -6.41,55.26 -48.4,82.53 -84.49,109.27 -36.09,26.74 -111.91,73.18 -111.91,73.18 0,0 4.12,-0.96 10.89,-0.96 13.71,0 38.26,3.94 61.42,27.75 0,0 -1.4,-22.25 -24.33,-37.41 0,0 104.96,-60.05 136.36,-110.92 19.43,-31.47 12.06,-60.91 12.06,-60.91 v 0 0 0 0 0"
         style="fill:#0b7767;fill-opacity:1;fill-rule:nonzero;stroke:none"
         id="path244" />
      <path
         d="m 3453.96,1690.14 c -23.27,33.49 -35.33,24.19 -44.41,-6.45 -6.7,-22.6 -18.73,-39.59 -18.73,-39.59 -0.3,10.01 -25.48,-4.92 -27.13,-26.06 -0.5,-6.4 -1.99,-12.64 -5.98,-17.67 -20.23,-25.56 -78.14,-69.28 -119.08,-100.86 -25.52,32.75 -82.59,106.02 -109.92,141.01 -37.5,48.01 -49.65,66.64 -93.27,71.27 0,0 16.6,-5.98 33.6,-26.39 16.99,-20.41 -4.78,-116.28 -4.78,-116.28 0,0 129.57,-132.45 143.03,-145.25 1.98,-1.88 4.03,-3.63 6.09,-5.24 13.49,-10.54 32.59,-10.02 45.93,0.71 38.04,30.62 96.94,95.53 127.41,130.44 20.6,23.61 31.35,32.87 44.61,46.04 28.59,28.42 37.22,73.34 22.63,94.32"
         style="fill:#b15662;fill-opacity:1;fill-rule:nonzero;stroke:none"
         id="path246" />
      <path
         d="m 2946.29,1709.18 c -57.37,-3.94 -61.4,-31.65 -75.76,-61.96 -10.93,-23.07 -11.06,-49.83 -2.71,-73.96 l 39.98,-115.67 c 0,0 -15.48,-34.52 -37.21,-77.27 100.34,-56.01 222.39,-37.3 252.56,3.57 1.28,8.67 -6.48,76.44 -11.25,120.71 17.67,44.33 22.34,72.43 14.88,101.74 -13.84,54.39 -67.57,107.39 -91.34,105.45 l -89.15,-2.61"
         style="fill:#26b6a6;fill-opacity:1;fill-rule:nonzero;stroke:none"
         id="path248" />
      <path
         d="m 2870.59,1380.32 c 0.04,0.09 0.09,0.19 0.14,0.28 -0.05,-0.09 -0.1,-0.19 -0.14,-0.28 m 0.17,0.35 c 3.33,6.54 6.48,12.85 9.47,18.91 1.25,2.51 2.45,4.97 3.64,7.37 0.94,1.93 1.87,3.83 2.77,5.69 2.9,5.96 5.56,11.51 7.96,16.54 -6.29,-13.22 -14.48,-30.1 -23.84,-48.51 m 37.03,76.9 v 0 0 m 0.01,0.01 v 0 0 m 0,0.01 v 0 0 m 0,0 -39.99,115.67 c -0.28,0.82 -0.55,1.65 -0.81,2.47 0.26,-0.82 0.54,-1.65 0.82,-2.47 l 39.98,-115.67 v 0"
         style="fill:#dbdcd9;fill-opacity:1;fill-rule:nonzero;stroke:none"
         id="path250" />
      <path
         d="m 3007.19,1345.33 c -39.59,0 -83.96,8.53 -125.42,29.14 -3.74,1.88 -7.48,3.78 -11.18,5.85 v 0 0 c 0.04,0.09 0.09,0.19 0.14,0.28 0.01,0.02 0.02,0.05 0.03,0.07 9.36,18.41 17.55,35.29 23.84,48.51 1.87,3.94 3.58,7.56 5.09,10.79 4.96,10.61 7.89,17.13 8.1,17.6 v 0 c 0,0 0,0.01 0.01,0.01 v 0 c 0,0 0,0 0,0.01 v 0 0 0 0 l -39.98,115.67 c -0.28,0.82 -0.56,1.65 -0.82,2.47 -0.62,1.97 -1.17,3.96 -1.69,5.96 -0.28,1.08 -0.5,2.17 -0.74,3.26 -0.38,1.72 -0.75,3.44 -1.05,5.17 -0.25,1.42 -0.44,2.85 -0.63,4.28 -0.18,1.34 -0.33,2.68 -0.45,4.02 -0.16,1.7 -0.29,3.39 -0.36,5.09 -0.04,0.94 -0.04,1.88 -0.05,2.83 -0.03,2.03 -0.05,4.06 0.05,6.08 l 0.01,0.11 c 0.39,7.84 1.73,15.63 4.06,23.16 l 0.02,0.06 c 4.55,3.17 7.45,5.18 7.45,5.18 l 42.68,-24.32 -0.31,-1.03 c -10.99,-36.89 -10.27,-76.32 1.77,-112.88 l 5.3,-16.08 c 3.04,-15.3 12.07,-28.76 25.07,-37.38 0,0 -0.6,0.09 -1.6,0.09 -3.84,0 -13.61,-1.28 -18.72,-13.57 -0.35,-0.84 -0.69,-1.91 -1.02,-3.15 -8.7,-32.73 12.2,-66.07 45.16,-73.88 17.75,-4.2 39.08,-6.89 62.5,-6.89 12.51,0 25.61,0.77 39.08,2.48 -19.07,-5.71 -41.78,-8.99 -66.34,-8.99"
         style="fill:#1db3a0;fill-opacity:1;fill-rule:nonzero;stroke:none"
         id="path252" />
      <path
         d="m 3124.41,1727.71 h -125.92 c -67.15,0 -121.6,54.44 -121.6,121.59 v 25.39 c 0,70.92 57.49,128.41 128.41,128.41 65.78,0 119.11,-53.33 119.11,-119.11 v -156.28"
         style="fill:#17282f;fill-opacity:1;fill-rule:nonzero;stroke:none"
         id="path254" />
      <path
         d="m 3083.34,1933.89 c 6.37,-3.33 23.53,-36.03 21.88,-107.55 -1.4,-60.61 -21.05,-75.58 -30.91,-79.89 -9.87,-4.32 -28.89,-1.69 -47.39,1.39 v -36.38 c 0,0 25.56,-29.69 23.95,-46.37 -1.6,-16.68 -36.91,-20.62 -60.83,-4.33 -23.92,16.3 -39.26,41.1 -39.26,41.1 v 87.93 c 0,0 -12.49,-16.67 -32.91,-3.11 -20.43,13.57 -21.2,47.14 -9.33,59.19 11.88,12.05 37.48,8.23 42.24,-8.42 0,0 29.97,-5.29 70.16,20.57 43.38,27.92 56.74,50.16 62.4,75.87"
         style="fill:#b15662;fill-opacity:1;fill-rule:nonzero;stroke:none"
         id="path256" />
      <path
         d="m 3093.24,1866.13 -16.93,8.08 c 2.07,4.8 7.55,6.88 12.22,4.64 4.68,-2.23 6.78,-7.93 4.71,-12.72"
         style="fill:#17282f;fill-opacity:1;fill-rule:nonzero;stroke:none"
         id="path258" />
      <path
         d="m 3023.14,1871.5 -15.86,-10.02 c -2.95,4.31 -1.79,10.05 2.58,12.82 4.39,2.76 10.34,1.51 13.28,-2.8"
         style="fill:#17282f;fill-opacity:1;fill-rule:nonzero;stroke:none"
         id="path260" />
      <path
         d="m 2950.09,1854.17 1.04,-37.11 c 10.46,-0.05 18.7,8.22 18.41,18.47 -0.28,10.24 -8.99,18.59 -19.45,18.64"
         style="fill:#17282f;fill-opacity:1;fill-rule:nonzero;stroke:none"
         id="path262" />
      <path
         d="m 2932.47,1973.16 -16,33.49 c -9.58,-4.19 -13.77,-15.09 -9.34,-24.34 4.41,-9.25 15.76,-13.35 25.34,-9.15"
         style="fill:#17282f;fill-opacity:1;fill-rule:nonzero;stroke:none"
         id="path264" />
      <path
         d="m 2923.93,1975.26 -36.99,3.23 c -1.25,-10.39 6.02,-19.52 16.23,-20.42 10.21,-0.89 19.51,6.8 20.76,17.19"
         style="fill:#17282f;fill-opacity:1;fill-rule:nonzero;stroke:none"
         id="path266" />
      <path
         d="m 3030.76,1843.89 c 0.22,-4.36 -3.02,-8.07 -7.22,-8.27 -4.2,-0.19 -7.79,3.19 -8,7.55 -0.23,4.37 3,8.07 7.21,8.27 4.2,0.2 7.79,-3.18 8.01,-7.55"
         style="fill:#17282f;fill-opacity:1;fill-rule:nonzero;stroke:none"
         id="path268" />
      <path
         d="m 3039.58,1790.19 17.7,-5.64 c -1.46,-5.07 -6.62,-7.91 -11.51,-6.35 -4.89,1.56 -7.66,6.93 -6.19,11.99"
         style="fill:#8c3842;fill-opacity:1;fill-rule:nonzero;stroke:none"
         id="path270" />
      <path
         d="m 3089.7,1847.09 c 0.22,-4.37 -3.01,-8.07 -7.22,-8.27 -4.2,-0.2 -7.78,3.17 -8.01,7.54 -0.21,4.37 3.01,8.07 7.22,8.27 4.2,0.2 7.79,-3.18 8.01,-7.54"
         style="fill:#17282f;fill-opacity:1;fill-rule:nonzero;stroke:none"
         id="path272" />
      <path
         d="m 3052.47,1851.45 1.21,-45.88 24.15,7.48 z"
         style="fill:#8c3842;fill-opacity:1;fill-rule:nonzero;stroke:none"
         id="path274" />
      <path
         d="m 3026.92,1747.84 c -19.5,2.56 -59.6,14.08 -65.85,29.93 0,0 2.08,-9.97 14.07,-20.23 11.98,-10.27 51.78,-21.83 51.78,-21.83 v 12.13"
         style="fill:#8c3842;fill-opacity:1;fill-rule:nonzero;stroke:none"
         id="path276" />
      <path
         d="m 2998.98,1236.92 c 33.97,22.57 24.93,34.83 -5.51,44.54 -22.46,7.17 -36.2,16.93 -36.2,16.93 10.01,0.09 14.58,0.06 19.83,1.58 10.46,3.03 12.32,11.26 11.53,15.1 -0.6,2.97 -7.87,0.88 -19.84,3.69 -15.34,3.61 -22.89,10.29 -40.01,9.91 -6.42,-0.13 -12.6,2.26 -17.54,6.35 -25.13,20.76 -66.28,83.2 -97,124.8 29.72,33.61 97.07,136.1 97.07,136.1 41.5,54.45 7.61,108.57 7.61,108.57 -28.83,-2.95 -56.76,-31.82 -92.1,-86.37 -79.19,-122.2 -110.47,-147.2 -88.25,-179.15 27.89,-40.09 85.39,-100.42 117.03,-134.29 14.81,-15.88 36.06,-32.6 49.57,-43.16 46.85,-36.67 72.53,-38.74 93.81,-24.6"
         style="fill:#b15662;fill-opacity:1;fill-rule:nonzero;stroke:none"
         id="path278" />
      <path
         d="m 3417.26,1718.78 v -100.55 c 0,-1.95 -1.29,-3.9 -3.88,-5.39 -5.16,-2.98 -13.54,-2.98 -18.69,0 -2.58,1.49 -3.87,3.44 -3.87,5.39 v 100.55 h 26.44"
         style="fill:#33535f;fill-opacity:1;fill-rule:nonzero;stroke:none"
         id="path280" />
      <path
         d="m 3390.82,1692.9 26.44,-15.26 v 41.14 h -26.44 v -25.88"
         style="fill:#273e47;fill-opacity:1;fill-rule:nonzero;stroke:none"
         id="path282" />
      <path
         d="m 3377.54,1799.42 -0.04,-20.46 -17.71,10.22 -0.07,-42.07 c -0.03,-12.68 8.85,-28.1 19.83,-34.44 l 31.12,-17.97 c 5.15,-2.96 9.93,-3.4 13.45,-1.71 0.38,0.18 15.66,8.85 18.87,10.95 3.31,2.17 5.34,6.46 5.35,12.49 l 0.05,42.08 -70.85,40.91"
         style="fill:#273e47;fill-opacity:1;fill-rule:nonzero;stroke:none"
         id="path284" />
      <path
         d="m 3410.67,1694.7 -31.12,17.97 c -10.98,6.34 -19.86,21.76 -19.83,34.44 l 0.07,42.07 70.86,-40.91 -0.06,-42.08 c -0.01,-12.68 -8.93,-17.82 -19.92,-11.49"
         style="fill:#33535f;fill-opacity:1;fill-rule:nonzero;stroke:none"
         id="path286" />
      <path
         d="m 3430.65,1748.27 -70.86,40.91 v 61.39 l 70.88,-40.92 -0.02,-61.38"
         style="fill:#ededeb;fill-opacity:1;fill-rule:nonzero;stroke:none"
         id="path288" />
      <path
         d="m 3430.65,1748.27 0.02,61.38 17.72,10.22 v -61.36 l -17.74,-10.24"
         style="fill:#dadbd8;fill-opacity:1;fill-rule:nonzero;stroke:none"
         id="path290" />
      <path
         d="m 3430.62,1730.02 -70.85,40.91 -0.02,-8.36 70.86,-41.36 0.01,8.81"
         style="fill:#26b6a6;fill-opacity:1;fill-rule:nonzero;stroke:none"
         id="path292" />
      <path
         d="m 3430.62,1730.02 17.73,10.23 -0.01,-8.8 -17.73,-10.24 0.01,8.81"
         style="fill:#26b6a6;fill-opacity:1;fill-rule:nonzero;stroke:none"
         id="path294" />
      <path
         d="m 3430.61,1721.21 0.01,8.81 17.73,10.23 -0.01,-8.8 -17.73,-10.24"
         style="fill:#1db3a0;fill-opacity:1;fill-rule:nonzero;stroke:none"
         id="path296" />
      <path
         d="m 3448.39,1801.14 c 0,0 -5.97,-14.65 -17.73,-15.42 l 0.01,23.93 17.72,10.22 v -18.73"
         style="fill:#26b6a6;fill-opacity:1;fill-rule:nonzero;stroke:none"
         id="path298" />
      <path
         d="m 3430.66,1785.72 0.01,23.93 17.72,10.22 v -18.73 c 0,0 -5.97,-14.65 -17.72,-15.42 -0.01,0 -0.01,0 -0.01,0"
         style="fill:#1db3a0;fill-opacity:1;fill-rule:nonzero;stroke:none"
         id="path300" />
      <path
         d="m 3430.66,1785.72 c 0,0 -12.64,-5.67 -24.12,2.86 -8.44,6.29 -11.31,28.3 -27.55,28.74 -11.43,0.31 -19.2,-11.72 -19.2,-11.72 v 44.97 l 70.88,-40.92 -0.01,-23.93"
         style="fill:#26b6a6;fill-opacity:1;fill-rule:nonzero;stroke:none"
         id="path302" />
      <path
         d="m 3359.79,1850.57 17.74,10.23 70.86,-40.93 -17.72,-10.22 -70.88,40.92"
         style="fill:#26b6a6;fill-opacity:1;fill-rule:nonzero;stroke:none"
         id="path304" />
      <path
         d="m 3430.67,1809.65 v 0 l -70.88,40.92 17.74,10.23 70.86,-40.93 -17.72,-10.22"
         style="fill:#a1dfd6;fill-opacity:1;fill-rule:nonzero;stroke:none"
         id="path306" />
      <path
         d="m 3363.24,1614.21 c -0.13,9.74 -2.13,28.91 2.44,40.92 4.58,12.01 26.02,28.35 33.32,33.05 7.3,4.7 14.46,-0.44 10.74,-14.17 -3.72,-13.73 -10.19,-17.74 -14.55,-27.18 -4.37,-9.44 -4.37,-15.44 -4.37,-15.44 l -27.58,-17.18"
         style="fill:#b15662;fill-opacity:1;fill-rule:nonzero;stroke:none"
         id="path308" />
      <path
         d="m 1624.58,2495.59 c -5.8,0 -12.35,1.89 -19.29,5.9 -23.96,13.83 -43.39,47.48 -43.39,75.15 0,13.09 4.36,22.46 11.48,27.28 1.73,0.07 3.47,0.24 5.24,0.49 7.91,-16.82 20.55,-32.06 34.81,-40.29 6.96,-4.02 13.54,-5.92 19.38,-5.92 4.83,0 9.15,1.3 12.75,3.8 l 177.83,102.67 v -57.94 l -151.87,-87.68 -9.81,7.08 c -1.32,0.96 -2.85,1.42 -4.37,1.42 -2.32,0 -4.62,-1.07 -6.08,-3.08 l -20.44,-28.08 c -1.96,-0.53 -4.05,-0.8 -6.24,-0.8 m 213.81,119.8 v 57.94 l 11.43,6.6 3.84,-25.08 c 0.38,-2.47 2.51,-4.24 4.94,-4.24 0.25,0 0.5,0.02 0.76,0.06 2.73,0.42 4.6,2.97 4.19,5.7 l -3.62,23.62 c 3.64,-9.43 5.72,-19.13 5.72,-28.19 0,-14.05 -5.04,-23.8 -13.12,-28.24 l -14.14,-8.17"
         style="fill:#1db3a0;fill-opacity:1;fill-rule:nonzero;stroke:none"
         id="path310" />
      <path
         d="m 1573.38,2603.92 c 0.48,0.32 0.98,0.63 1.48,0.91 l 2.82,1.63 c 0.3,-0.69 0.62,-1.37 0.94,-2.05 -1.77,-0.25 -3.51,-0.42 -5.24,-0.49"
         style="fill:#dbdcd9;fill-opacity:1;fill-rule:nonzero;stroke:none"
         id="path312" />
      <path
         d="m 1823.39,2606.73 v 57.94 l 15,8.66 v -57.94 l -15,-8.66"
         style="fill:#dbdcd9;fill-opacity:1;fill-rule:nonzero;stroke:none"
         id="path314" />
      <path
         d="m 1630.82,2496.39 20.44,28.08 c 1.46,2.01 3.76,3.08 6.08,3.08 1.52,0 3.05,-0.46 4.37,-1.42 l 9.81,-7.08 -35.21,-20.33 c -1.7,-1.03 -3.53,-1.81 -5.49,-2.33"
         style="fill:#dbdcd9;fill-opacity:1;fill-rule:nonzero;stroke:none"
         id="path316" />
      <path
         d="m 2126.01,1846.56 c 0,0 -69.09,-2.82 -88.61,-2.51 -50.08,51.56 -122.94,125.85 -138.5,146.97 -21.32,39.42 -39.51,75.94 -57.74,78.97 -18.65,3.09 -57.77,-6.9 -67.31,-24.04 -6.62,-11.9 8.24,-46.13 21.17,-37.67 6.23,-11.11 13.02,-40.17 46.14,-50.6 51.51,-61.65 110.24,-141.47 142.37,-179.17 11.29,-13.24 39.19,-19.63 62.11,-3.4 l 80.37,71.45"
         style="fill:#f6879f;fill-opacity:1;fill-rule:nonzero;stroke:none"
         id="path318" />
      <path
         d="m 2332.36,711.82 c 4.27,-1.73 5.16,-9.941 5.45,-26.25 0.22,-12.34 2.37,-33.91 -12.16,-37.879 -14.54,-3.972 -35.64,-1.3 -44.63,10.528 -11.22,14.761 -18.74,27.703 -34.82,45.769 -13.95,15.672 -29.1,30.344 -34.38,51.992 -4.78,19.571 -0.25,27.911 13.15,33.27 18.42,7.371 46.52,-18.691 60.73,-23.012 12.24,-3.718 42.4,-52.687 46.66,-54.418"
         style="fill:#17282f;fill-opacity:1;fill-rule:nonzero;stroke:none"
         id="path320" />
      <path
         d="m 2332.7,726.91 -0.45,-20.012 c 0,0 -21.16,-15.507 -50.57,-0.218 -0.84,1.949 -4.61,28.718 -4.61,28.718 l 55.63,-8.488"
         style="fill:#f6879f;fill-opacity:1;fill-rule:nonzero;stroke:none"
         id="path322" />
      <path
         d="m 2167.79,600.211 c 0,0 5.35,-17.531 8.1,-32.813 2.18,-12.136 5.25,-32.429 0.81,-41.429 -4.44,-9 -21.09,-14.5 -46.69,-13.731 -16.58,0.5 -42.68,-10.179 -60.6,-19.648 -18.51,-9.789 -56.61,-13 -75.89,-10.289 -22.72,3.187 -46.03,16.929 -49.5,26.449 -3.47,9.512 1.64,19.199 55.85,40.871 0.5,0.199 75.18,22.641 101.81,50.719 l 66.11,-0.129"
         style="fill:#17282f;fill-opacity:1;fill-rule:nonzero;stroke:none"
         id="path324" />
      <path
         d="m 2168.28,621.832 c 0,0 -0.41,-14.844 -0.53,-23.332 -0.11,-8.48 -10.42,-20.891 -36.32,-19.379 -18.2,1.059 -30.81,6.238 -29.75,21.219 l 0.49,21.629 66.11,-0.137"
         style="fill:#f6879f;fill-opacity:1;fill-rule:nonzero;stroke:none"
         id="path326" />
      <path
         d="m 2351.68,992.031 c -7.68,65.559 -21.27,104.699 -21.27,104.699 0,0 9.16,89.71 14.51,174.84 5.77,91.95 4.48,207.73 6.75,230.65 0,0 -295.64,66.79 -303.33,-39.49 -7.7,-106.28 3.23,-377.49 5.69,-424.31 2.45,-46.818 9.6,-88.33 17.55,-164.311 7.85,-74.98 30.59,-252.14 30.59,-252.14 33.51,-19.11 66.11,-0.137 66.11,-0.137 0,0 25.69,212.258 24.71,266.25 -1.19,65.906 -17.8,118.168 -17.8,118.168 0,0 7.61,87.6 14.3,163.8 6.69,76.2 12.79,112.73 14.68,145.9 l 6.47,3.02 c 0,0 3.54,-131.79 6.01,-178.61 2.45,-46.82 8.88,-91.8 20.44,-178.919 10.04,-75.582 41.38,-235.722 41.38,-235.722 33.52,-19.11 54.23,1.191 54.23,1.191 0,0 26.67,199.57 18.98,265.121"
         style="fill:#273e47;fill-opacity:1;fill-rule:nonzero;stroke:none"
         id="path328" />
      <path
         d="m 2204.17,1315.95 c 0,0 72.85,33.88 109.63,65.09 0,0 -34.54,-46.42 -78.96,-66.35 0,0 -19.32,-163.18 -19.17,-159.94 l -5.4,161.31 -6.1,-0.11"
         style="fill:#17282f;fill-opacity:1;fill-rule:nonzero;stroke:none"
         id="path330" />
      <path
         d="m 2152.65,1925.87 16.57,-97.34 91.76,7.98 -19.03,106.68 -89.3,-17.32"
         style="fill:#f6879f;fill-opacity:1;fill-rule:nonzero;stroke:none"
         id="path332" />
      <path
         d="m 2349.02,1834.78 c -8.06,26.5 -40.78,55.87 -74.31,50.42 -7.79,-1.26 -14.38,-2.38 -21.77,-3.67 0.06,-16.99 -46.88,-29.2 -89.74,-19.11 -12.93,-3.38 -24.76,-6.87 -35.52,-10.44 -30.82,-10.23 -59.26,-36.02 -64.05,-136.51 0,0 -15.52,-234.17 -16.73,-279.5 76.08,-32.1 155.93,-32.96 200.27,-24.32 92.31,18.01 104.25,55.86 104.25,55.86 0,0 4.98,168.53 3.86,241.39 -0.94,61.9 -0.73,107.69 -6.26,125.88"
         style="fill:#26b6a6;fill-opacity:1;fill-rule:nonzero;stroke:none"
         id="path334" />
      <path
         d="m 2091.31,2052.61 c 0,0 -26.95,-31.84 -24.76,-35.55 2.19,-3.7 18.59,-8.78 18.59,-8.78 l 6.17,44.33"
         style="fill:#f47089;fill-opacity:1;fill-rule:nonzero;stroke:none"
         id="path336" />
      <path
         d="m 2166.07,2140.66 c -47.28,-4.18 -70.13,-20.98 -78.58,-95.9 -8.65,-76.74 -2.24,-103.76 6.58,-115.27 5.95,-7.77 39.35,-10.49 59.02,-7.53 24.6,3.71 80.72,16.31 110.55,51.79 35.1,41.73 50.26,102.19 21.54,131.19 -40.41,40.81 -99.86,37.43 -119.11,35.72"
         style="fill:#f6879f;fill-opacity:1;fill-rule:nonzero;stroke:none"
         id="path338" />
      <path
         d="m 2083.29,2113.9 1.39,-1.37 c 8.94,-8.48 20.38,-13.86 29.72,-21.88 10.31,-8.87 17.35,-20.59 21.1,-33.59 3.08,-10.68 4.28,-23.34 15.9,-28.3 0,0 7.34,28.5 31.35,24.92 24.18,-3.61 27.45,-34.42 12.21,-53.15 -15.24,-18.72 -29.44,-11.54 -29.44,-11.54 0,0 0.75,-40.74 18.79,-63.8 0,0 20.54,-6.64 58.31,1.41 23.22,4.95 56.05,33.97 69.86,64.7 29.19,65 31.23,123.5 -10.27,141.03 -4.49,29.96 -28.07,43.38 -54.96,49.56 -40.21,9.24 -77.81,-14.63 -117.58,-5.73 -8.33,1.87 -16.43,4.85 -24.9,5.9 -0.97,0.12 -2.01,0.2 -2.88,-0.23 -2.03,-1.02 -1.89,-3.93 -1.3,-6.12 2.11,-7.95 6.16,-15.38 11.69,-21.47 -15.53,-1.07 -30.19,1.19 -45.06,5.69 -1.78,-16.7 4.32,-34.05 16.07,-46.03"
         style="fill:#17282f;fill-opacity:1;fill-rule:nonzero;stroke:none"
         id="path340" />
      <path
         d="m 2302.92,2122.3 27.8,16.39 c -4.52,7.67 -14.42,10.23 -22.09,5.7 -7.67,-4.52 -10.23,-14.41 -5.71,-22.09"
         style="fill:#17282f;fill-opacity:1;fill-rule:nonzero;stroke:none"
         id="path342" />
      <path
         d="m 2150.9,2012.51 0.86,32.25 c -8.91,0.24 -16.32,-6.79 -16.56,-15.7 -0.23,-8.91 6.79,-16.31 15.7,-16.55"
         style="fill:#17282f;fill-opacity:1;fill-rule:nonzero;stroke:none"
         id="path344" />
      <path
         d="m 1896.27,1740.72 v 0 l -32.94,211.57 -44.38,-7.11 33.01,-211.96 c 0.32,-1.89 1.47,-3.68 3.52,-5.18 6.72,-4.91 20.51,-4.91 30.8,0 7.2,3.43 10.77,8.35 9.99,12.68"
         style="fill:#273e47;fill-opacity:1;fill-rule:nonzero;stroke:none"
         id="path346" />
      <path
         d="m 1822.51,1939.77 c 6.72,-4.91 20.52,-4.91 30.81,0 10.29,4.91 13.19,12.88 6.47,17.79 -6.71,4.91 -20.51,4.91 -30.8,0 -10.29,-4.91 -13.19,-12.88 -6.48,-17.79"
         style="fill:#33535f;fill-opacity:1;fill-rule:nonzero;stroke:none"
         id="path348" />
      <path
         d="m 1832.89,2735.17 7.77,4.5 13,-84.82 c 0.42,-2.73 2.97,-4.6 5.7,-4.18 2.73,0.42 4.6,2.97 4.19,5.7 l -14.11,92.05 c -0.25,1.64 -1.29,3.04 -2.78,3.75 -1.49,0.72 -3.23,0.65 -4.67,-0.18 l -14.1,-8.16 c -2.39,-1.39 -3.21,-4.45 -1.83,-6.84 1.39,-2.39 4.44,-3.2 6.83,-1.82"
         style="fill:#273e47;fill-opacity:1;fill-rule:nonzero;stroke:none"
         id="path350" />
      <path
         d="m 1873.78,2714.44 c 0,27.67 -19.43,61.32 -43.39,75.15 -12.1,6.99 -23.02,7.56 -30.89,2.87 l -216.76,-125.14 61.3,-106.19 216.63,125.06 c 8.07,4.44 13.11,14.19 13.11,28.25"
         style="fill:#26b6a6;fill-opacity:1;fill-rule:nonzero;stroke:none"
         id="path352" />
      <path
         d="m 1873.78,2714.44 c 0,27.67 -19.43,61.32 -43.39,75.15 -12.1,6.99 -23.02,7.56 -30.89,2.87 l -216.76,-125.14 61.3,-106.19 216.63,125.06 c 8.07,4.44 13.11,14.19 13.11,28.25"
         style="fill:#26b6a6;fill-opacity:1;fill-rule:nonzero;stroke:none"
         id="path354" />
      <g
         id="g356">
        <g
           id="g358"
           clip-path="url(#clipPath362)">
          <path
             d="m 1584.28,2562 h 289.5 v 233.5 h -289.5 z"
             style="fill:#bee9e1;fill-opacity:1;fill-rule:nonzero;stroke:none"
             id="path364" />
        </g>
      </g>
      <path
         d="m 1584.74,2668.48 70.07,40.47 c 0,-0.01 -0.01,-0.02 -0.01,-0.03 l -70.04,-40.43 c -0.01,0 -0.01,-0.01 -0.02,-0.01 m 87.23,50.35 c 0,0.02 0,0.03 0,0.04 l 127.48,73.63 c 1.98,1.15 4.15,1.98 6.48,2.47 -2.31,-0.5 -4.47,-1.34 -6.43,-2.51 l -127.53,-73.63"
         style="fill:#87d6cb;fill-opacity:1;fill-rule:nonzero;stroke:none"
         id="path366" />
      <path
         d="m 1654.8,2708.92 c 0,0.01 0.01,0.02 0.01,0.03 l 17.16,9.92 c 0,-0.01 0,-0.02 0,-0.04 l -17.17,-9.91"
         style="fill:#fefefe;fill-opacity:1;fill-rule:nonzero;stroke:none"
         id="path368" />
      <path
         d="m 1823.39,2792.98 c -0.23,0.09 -0.47,0.18 -0.7,0.27 0.23,-0.09 0.47,-0.17 0.7,-0.26 v -0.01"
         style="fill:#87d6cb;fill-opacity:1;fill-rule:nonzero;stroke:none"
         id="path370" />
      <path
         d="m 1833.42,2787.72 c -1,0.66 -2.01,1.28 -3.03,1.87 -2.38,1.38 -4.72,2.51 -7,3.39 v 0.01 c 2.29,-0.89 4.64,-2 7.04,-3.37 1,-0.6 2,-1.23 2.99,-1.9"
         style="fill:#fefefe;fill-opacity:1;fill-rule:nonzero;stroke:none"
         id="path372" />
      <path
         d="m 1631.31,2649.57 c -5.45,5.98 -11.43,11.11 -17.84,14.74 -7,4.08 -13.62,6 -19.48,6 -3.34,0 -6.44,-0.62 -9.23,-1.82 l 214.74,123.97 c 1.96,1.17 4.12,2.01 6.43,2.51 1.62,0.34 3.33,0.51 5.1,0.51 3.62,0 7.53,-0.72 11.66,-2.23 2.5,-0.92 5.07,-2.14 7.7,-3.66 1.02,-0.59 2.03,-1.21 3.03,-1.87 5.21,-3.5 10.16,-7.92 14.74,-12.95 l -216.85,-125.2"
         style="fill:#e5f6f3;fill-opacity:1;fill-rule:nonzero;stroke:none"
         id="path374" />
      <path
         d="m 1613.43,2664.33 c 23.96,-13.84 43.39,-47.48 43.39,-75.16 0,-27.67 -19.43,-38.89 -43.39,-25.05 -23.97,13.84 -43.39,47.49 -43.4,75.16 0,27.67 19.43,38.89 43.4,25.05"
         style="fill:#26b6a6;fill-opacity:1;fill-rule:nonzero;stroke:none"
         id="path376" />
      <path
         d="m 1632.81,2558.2 c -5.84,0 -12.42,1.9 -19.38,5.92 -14.26,8.23 -26.9,23.47 -34.81,40.29 -0.32,0.68 -0.64,1.36 -0.94,2.05 -4.82,10.85 -7.64,22.27 -7.65,32.82 0,14.47 5.32,24.45 13.82,28.69 l -1.14,-0.67 0.07,-0.13 1.5,1 c 2.92,1.38 6.2,2.09 9.77,2.09 5.83,0 12.41,-1.91 19.38,-5.93 23.96,-13.84 43.39,-47.48 43.39,-75.16 0,-19.62 -9.78,-30.97 -24.01,-30.97"
         style="fill:#87d6cb;fill-opacity:1;fill-rule:nonzero;stroke:none"
         id="path378" />
      <path
         d="m 1583.85,2667.97 0.89,0.51 -0.05,-0.03 -0.82,-0.48 c 0,0 -0.01,0 -0.02,0"
         style="fill:#70cec3;fill-opacity:1;fill-rule:nonzero;stroke:none"
         id="path380" />
      <path
         d="m 1583.87,2667.97 0.82,0.48 -0.41,-0.28 c -0.14,-0.06 -0.27,-0.13 -0.41,-0.2"
         style="fill:#dff4ef;fill-opacity:1;fill-rule:nonzero;stroke:none"
         id="path382" />
      <path
         d="m 1582.78,2667.17 -0.07,0.13 1.14,0.67 c 0.14,0.07 0.29,0.13 0.43,0.2 l -1.5,-1"
         style="fill:#bde9e0;fill-opacity:1;fill-rule:nonzero;stroke:none"
         id="path384" />
      <path
         d="M 1856.1,2659.94 1617.27,2522 l -12.49,81.45 11.15,6.45 c 2.39,1.38 3.21,4.44 1.83,6.83 -1.39,2.39 -4.45,3.21 -6.84,1.82 l -14.1,-8.16 c -1.78,-1.02 -2.75,-3.05 -2.44,-5.08 l 14.11,-92.05 c 0.25,-1.64 1.29,-3.04 2.78,-3.75 1.49,-0.72 3.23,-0.65 4.66,0.18 l 245.17,141.59 c 2.4,1.38 3.21,4.44 1.83,6.83 -1.38,2.39 -4.44,3.21 -6.83,1.83"
         style="fill:#273e47;fill-opacity:1;fill-rule:nonzero;stroke:none"
         id="path386" />
      <path
         d="m 1845.89,1953.28 -97.34,636.65 c -0.42,2.73 -2.97,4.61 -5.7,4.19 -2.73,-0.42 -4.6,-2.97 -4.18,-5.7 L 1836,1951.77 c 0.42,-2.73 2.97,-4.61 5.7,-4.19 2.73,0.42 4.61,2.97 4.19,5.7"
         style="fill:#273e47;fill-opacity:1;fill-rule:nonzero;stroke:none"
         id="path388" />
      <path
         d="m 2115.9,1847.09 c -37.03,-5.42 -62.32,-34.12 -103.77,-84.89 -36.93,-45.22 -70.82,-97.43 -70.82,-97.43 0,0 -62.89,112.06 -68.68,136.32 -5.78,24.25 4.98,31.19 11.22,65.24 6.25,34.04 -14.66,47.84 -14.66,47.84 l 2.38,-15.3 c -1.72,-12.51 -13.22,-22.6 -24.28,-25.6 0,0 -17.18,0.25 -20.98,24.64 l -5.65,36.34 c 0,0 -23.6,-1.6 -25.49,-57.69 -1.46,-43.26 8.71,-63.67 15.91,-92.63 6.28,-25.19 38.04,-145.22 74.04,-204 13.88,-22.65 32.24,-49.37 76.65,-12.49 44.42,36.88 140.14,139.95 140.14,139.95 0,0 49.02,46.88 13.99,139.7"
         style="fill:#f6879f;fill-opacity:1;fill-rule:nonzero;stroke:none"
         id="path390" />
      <path
         d="m 2127.68,1851.98 c -26.73,-3.49 -53.24,-12.94 -80.78,-42.99 -27.53,-30.05 -85.13,-106.31 -85.13,-106.31 0,0 2.37,-54.06 63.32,-82.57 l 89.94,88.67 c 0,0 29.41,30.44 32.68,75.16 4.23,57.82 -20.03,68.04 -20.03,68.04"
         style="fill:#273e47;fill-opacity:1;fill-rule:nonzero;stroke:none"
         id="path392" />
      <path
         d="m 1806.16,2052.97 c 4.72,-6.8 9.08,-13.76 12.74,-26.53 2.37,-8.29 3,-32.24 32.32,-35.42 0,0 -2.31,37.45 -15.09,50.22 -12.77,12.77 -29.97,11.73 -29.97,11.73"
         style="fill:#f47089;fill-opacity:1;fill-rule:nonzero;stroke:none"
         id="path394" />
      <path
         d="m 1854.89,1988.98 c -29.49,15.41 -21.97,31 -37.62,49.36 -14.1,16.54 -15.47,21.67 -13.78,27.82 1.09,3.95 4.94,4.66 12.47,2.96 19.17,-4.32 31.71,-24.35 41.4,-39.61 l -2.47,-40.53"
         style="fill:#f6879f;fill-opacity:1;fill-rule:nonzero;stroke:none"
         id="path396" />
      <path
         d="m 1795.02,2008.28 c 0,0 2.12,2.14 2.12,4.74 0,0 4.09,-4.27 9.02,-2.37 4.93,1.9 6.83,5.68 7.06,8.99 0,0 0.78,-9.01 -7.06,-11.36 -7.84,-2.36 -8.07,1.13 -8.07,1.13 0,0 -0.4,-2.27 -1.86,-3.47"
         style="fill:#f47089;fill-opacity:1;fill-rule:nonzero;stroke:none"
         id="path398" />
    </g>
  </g>
</svg>
